<?xml version="1.0" encoding="UTF-8"?>
<svg width="200px" height="200px" viewBox="0 0 200 200" version="1.1" xmlns="http://www.w3.org/2000/svg" xmlns:xlink="http://www.w3.org/1999/xlink">
    <!-- Generator: Sketch 48.2 (47327) - http://www.bohemiancoding.com/sketch -->
    <title>check_your_details</title>
    <desc>Created with Sketch.</desc>
    <defs></defs>
    <g id="Page-1" stroke="none" stroke-width="1" fill="none" fill-rule="evenodd">
        <g id="check_your_details">
            <path d="M200,200 L0,200 C0,190.972177 0.34721875,184.027802 1.04166667,179.166667 C2.4305625,172.222187 16.4929219,163.715328 43.2291667,153.645833 C47.3958542,152.256937 52.430526,150.520844 58.3333333,148.4375 C66.3194844,145.659708 71.0069375,143.489591 72.3958333,141.927083 C73.7847292,140.364576 74.4791667,135.763927 74.4791667,128.125 L74.4791667,125 C74.4791667,120.833312 72.9166823,116.753492 69.7916667,112.760417 C66.666651,108.767341 64.2361198,101.736161 62.5,91.6666667 C61.8055521,88.1944271 60.7638958,85.4166771 59.375,83.3333333 C57.9861042,81.2499896 56.5972292,77.0833646 55.2083333,70.8333333 C54.1666615,67.7083177 54.0798568,64.7569583 54.9479167,61.9791667 C55.8159766,59.201375 56.25,57.4652813 56.25,56.7708333 C55.5555521,51.21525 54.8611146,45.4861406 54.1666667,39.5833333 C53.4722187,31.5971823 56.9444062,23.0035182 64.5833333,13.8020833 C72.2222604,4.60064844 84.0276979,0 100,0 C115.972302,0 127.77774,4.60064844 135.416667,13.8020833 C143.055594,23.0035182 146.527781,31.5971823 145.833333,39.5833333 C145.138885,45.4861406 144.444448,51.21525 143.75,56.7708333 C143.75,57.4652813 144.184023,59.201375 145.052083,61.9791667 C145.920143,64.7569583 145.833339,67.7083177 144.791667,70.8333333 C143.402771,77.0833646 142.013896,81.2499896 140.625,83.3333333 C139.236104,85.4166771 138.194448,88.1944271 137.5,91.6666667 C135.76388,101.736161 133.333349,108.767341 130.208333,112.760417 C127.083318,116.753492 125.520833,120.833312 125.520833,125 C125.520833,135.416719 126.56249,141.319437 128.645833,142.708333 C129.340281,143.402781 137.847141,146.701359 154.166667,152.604167 C154.861115,152.951391 155.729161,153.298609 156.770833,153.645833 C183.507078,163.715328 197.569437,172.222187 198.958333,179.166667 L200,200 Z" id="ion-person---Ionicons" fill="#425563"></path>
            <g id="Group" transform="translate(144.242929, 138.596482) rotate(15.000000) translate(-144.242929, -138.596482) translate(99.242929, 93.096482)">
                <path d="M64.0698212,56.9795315 L89.7912822,82.9867866 L82.0748439,90.7889631 L56.5872143,64.7817081 L56.5872143,60.762405 L54.9503941,59.3438275 C48.7148572,64.702925 41.4661543,67.3824336 33.2040679,67.3824336 C24.006651,67.3824336 16.1733753,64.1118569 9.70400576,57.5706055 C3.23463624,51.0293541 0,43.109042 0,33.8094316 C0,24.5098212 3.23463624,16.5501045 9.70400576,9.93004284 C16.1733753,3.30998118 23.928708,0 32.9702364,0 C42.1676533,0 50.0009291,3.30998118 56.4702986,9.93004284 C62.9396681,16.5501045 66.1743043,24.5098212 66.1743043,33.8094316 C66.1743043,42.1633189 63.5242409,49.492563 58.2240346,55.7973836 L59.8608548,56.9795315 L64.0698212,56.9795315 Z M17.5198261,50.7890496 C22.0216332,55.1839172 27.4547673,57.3813181 33.8193912,57.3813181 C40.1840151,57.3813181 45.6171492,55.1446779 50.1189563,50.6713305 C54.6207635,46.197983 56.8716333,40.7437201 56.8716333,34.3083781 C56.8716333,27.8730362 54.6207635,22.379534 50.1189563,17.8277067 C45.6171492,13.2758795 40.1840151,11 33.8193912,11 C27.4547673,11 22.0604413,13.2758795 17.6362515,17.8277067 C13.2120617,22.379534 11,27.8730362 11,34.3083781 C11,40.7437201 13.1732536,46.2372223 17.5198261,50.7890496 Z" id="ion-android-search---Ionicons" fill="#768692"></path>
                <circle id="Oval" fill="#FFFFFF" cx="34" cy="34" r="24"></circle>
            </g>
        </g>
    </g>
</svg>