<?xml version="1.0" encoding="UTF-8"?>
<svg width="204px" height="204px" viewBox="0 0 204 204" version="1.1" xmlns="http://www.w3.org/2000/svg" xmlns:xlink="http://www.w3.org/1999/xlink">
    <!-- Generator: Sketch 48.2 (47327) - http://www.bohemiancoding.com/sketch -->
    <title>preference</title>
    <desc>Created with Sketch.</desc>
    <defs>
        <path d="M24.9244444,48.9488889 C11.6566667,48.9488889 0.901111111,38.1933333 0.901111111,24.9244444 C0.901111111,11.6566667 11.6566667,0.901111111 24.9244444,0.901111111 C38.1933333,0.901111111 48.9488889,11.6566667 48.9488889,24.9244444 C48.9488889,38.1933333 38.1933333,48.9488889 24.9244444,48.9488889 Z" id="path-1"></path>
        <path d="M6.39333333,2.06 C12.1844444,-1.28222222 19.3866667,1.11666667 22.6844444,6.82777778 L48.7888889,52.0433333 L51.3277778,50.5777778 L46.9311111,42.9622222 C43.6788889,37.33 45.59,30.1977778 51.2222222,26.9466667 C57.0133333,23.6033333 64.2155556,26.0022222 67.5122222,31.7133333 L71.6344444,38.8533333 L74.1733333,37.3877778 L71.2422222,32.3111111 C68.4022222,27.3922222 70.0788889,21.1366667 74.9966667,18.2966667 C80.0733333,15.3655556 86.2622222,17.2922222 89.1477778,22.29 L91.9422222,27.1288889 L94.48,25.6633333 C92.0522222,21.4588889 93.4944444,16.0788889 97.6988889,13.6511111 C102.061111,11.1322222 107.512222,13.0622222 109.938889,17.2666667 L119.877778,34.48 C122.854444,39.6355556 125.196667,45.1588889 126.858889,50.9677778 L136.414444,84.3733333 C137.141111,86.9144444 135.995556,89.6922222 133.694444,91.02 L76.74,123.903333 C73.5666667,125.734444 69.6822222,125.967778 66.3122222,124.528889 L12.4033333,101.501111 C10.0477778,100.534444 8.09666667,98.8044444 6.81444444,96.5833333 C3.65444444,91.11 5.39444444,83.8655556 10.9477778,80.66 C14.2788889,78.7366667 18.4133333,78.57 21.9077778,80.0433333 L43.1377778,89.1511111 L2.10222222,18.0766667 C-1.14888889,12.4444444 0.762222222,5.31222222 6.39333333,2.06 Z" id="path-3"></path>
        <polygon id="path-5" points="3.23111111 0.04 20.8177778 30.5 18.2788889 31.9655556 0.692222222 1.50555556"></polygon>
        <polygon id="path-7" points="2.85 0.293333333 20.4366667 30.7544444 17.8977778 32.22 0.311111111 1.75888889"></polygon>
        <polygon id="path-9" points="2.58 0.547777778 20.1666667 31.0077778 17.6277778 32.4733333 0.0422222222 2.01333333"></polygon>
    </defs>
    <g id="Page-1" stroke="none" stroke-width="1" fill="none" fill-rule="evenodd">
        <g id="preference" transform="translate(4.000000, 4.000000)">
            <path d="M65.8580108,135.919902 C59.3745085,126.383725 48.4367583,120.12 36.0360333,120.12 C16.1338778,120.12 0,136.253878 0,156.156033 C0,176.058189 16.1338778,192.192067 36.0360333,192.192067 C49.9735896,192.192067 62.0630864,184.279602 68.0575972,172.701598" id="Stroke-205" stroke="#FFFFFF" stroke-width="8"></path>
            <path d="M65.7925133,56.3681686 C69.7544723,50.5809143 72.0720667,43.579126 72.0720667,36.0360333 C72.0720667,16.1338778 55.9381889,0 36.0360333,0 C16.1338778,0 0,16.1338778 0,36.0360333 C0,45.6645747 3.77623953,54.4111261 9.92849834,60.8754672 C16.4929332,67.7728926 25.7624192,72.0720667 36.0360333,72.0720667 C39.4245269,72.0720667 42.703787,71.6043834 45.8127847,70.7300456" id="Stroke-210" stroke="#FFFFFF" stroke-width="8"></path>
            <g id="Group-214" transform="translate(11.111111, 11.111111)">
                <mask id="mask-2" fill="white">
                    <use xlink:href="#path-1"></use>
                </mask>
                <g id="Clip-213"></g>
                <polygon id="Fill-212" fill="#FFFFFF" mask="url(#mask-2)" points="-4.65444444 54.5044444 54.5047111 54.5044444 54.5047111 -4.65471111 -4.65444444 -4.65471111"></polygon>
            </g>
            <g id="Group-220" transform="translate(51.000000, 62.000000)">
                <mask id="mask-4" fill="white">
                    <use xlink:href="#path-3"></use>
                </mask>
                <path stroke="#FFFFFF" stroke-width="12" d="M41.8465274,28.0181994 C43.3471729,25.5031184 45.4965612,23.3238589 48.2223341,21.7504497 C53.5783239,18.6583212 59.8004782,18.7636683 64.9408997,21.3514002 C66.2282099,17.9953189 68.6344807,15.0421652 71.9965928,13.1005569 C77.6602039,9.8305621 84.3140111,10.3635911 89.31371,13.8149532 C90.5677222,11.6590129 92.384396,9.79141929 94.6985684,8.45514371 C101.908609,4.29183196 111.027749,7.1503691 115.134941,14.2664932 L125.073884,31.4799204 C128.301311,37.0697902 130.833287,43.0474386 132.627525,49.3176772 L142.183207,82.723674 C143.668942,87.9192035 141.373156,93.5164616 136.69449,96.216126 L79.7387548,129.100204 C74.9302339,131.874869 69.0620802,132.227022 63.9552826,130.046573 L10.1254206,107.051887 C6.54356746,105.581976 3.56544345,102.956259 1.61827949,99.5833116 C-3.21426894,91.2130115 -0.450637508,80.3116723 7.94764273,75.4639255 C12.8806961,72.6156549 18.9835946,72.2989421 24.2733135,74.5293293 L28.9179394,76.5218973 L-3.09419142,21.0762142 C-8.00158002,12.5746582 -5.10767036,1.77356294 3.39257305,-3.1357134 L3.39419304,-3.13664868 C12.0230613,-8.11662485 22.8993317,-4.79880685 27.8806351,3.82784403 L41.8465297,28.0181954 Z"></path>
            </g>
            <g id="Group-223" transform="translate(106.000000, 132.000000)">
                <mask id="mask-6" fill="white">
                    <use xlink:href="#path-5"></use>
                </mask>
                <g id="Clip-222"></g>
                <polygon id="Fill-221" fill="#FFFFFF" mask="url(#mask-6)" points="-6.89666667 -0.527777778 5.26444444 -7.54888889 28.4066667 32.5344444 16.2455556 39.5555556"></polygon>
            </g>
            <g id="Group-226" transform="translate(127.000000, 120.000000)">
                <mask id="mask-8" fill="white">
                    <use xlink:href="#path-7"></use>
                </mask>
                <g id="Clip-225"></g>
                <polygon id="Fill-224" fill="#FFFFFF" mask="url(#mask-8)" points="-7.27777778 -0.274444444 4.88333333 -7.29555556 28.0255556 32.7877778 15.8644444 39.8088889"></polygon>
            </g>
            <g id="Group-229" transform="translate(148.000000, 108.000000)">
                <mask id="mask-10" fill="white">
                    <use xlink:href="#path-9"></use>
                </mask>
                <g id="Clip-228"></g>
                <polygon id="Fill-227" fill="#FFFFFF" mask="url(#mask-10)" points="-7.54777778 -0.0211111111 4.61333333 -7.04222222 27.7555556 33.0411111 15.5944444 40.0622222"></polygon>
            </g>
        </g>
    </g>
</svg>