<?xml version="1.0" encoding="UTF-8"?>
<svg width="200px" height="200px" viewBox="0 0 200 200" version="1.1" xmlns="http://www.w3.org/2000/svg" xmlns:xlink="http://www.w3.org/1999/xlink">
    <!-- Generator: Sketch 48.2 (47327) - http://www.bohemiancoding.com/sketch -->
    <title>confirm_your_identity</title>
    <desc>Created with Sketch.</desc>
    <defs></defs>
    <g id="Page-1" stroke="none" stroke-width="1" fill="none" fill-rule="evenodd">
        <g id="confirm_your_identity">
            <path d="M98.0814766,0 C102.581864,0 106.420372,1.78362776 109.597116,5.35093679 C112.773859,8.91824583 114.362208,13.2286796 114.362208,18.2823674 L114.362208,181.48594 C114.362208,186.539627 112.773859,190.850061 109.597116,194.41737 C106.420372,197.984679 102.581864,199.768307 98.0814766,199.768307 L16.2807309,199.768307 C11.7803438,199.768307 7.94183585,197.984679 4.76509198,194.41737 C1.58834811,190.850061 0,186.539627 0,181.48594 L0,18.2823674 C0,13.2286796 1.58834811,8.91824583 4.76509198,5.35093679 C7.94183585,1.78362776 11.7803438,0 16.2807309,0 L98.0814766,0 Z M100.066932,164.095395 L100.066932,35.672912 L14.2952759,35.672912 L14.2952759,164.095395 L100.066932,164.095395 Z" id="ion-android-phone-portrait---Ionicons" fill="#425563"></path>
            <rect id="Rectangle" fill="#FFFFFF" x="14.4730891" y="34.9344978" width="85.9339665" height="130.131004"></rect>
            <path d="M53.7462687,40 L196.095432,40 C197.752286,40 199.095432,41.3431458 199.095432,43 L199.095432,73.6812227 C199.095432,75.338077 197.752286,76.6812227 196.095432,76.6812227 L74.2650384,76.6812227 L58.8873813,91.0917031 L61.6010855,76.6812227 L53.7462687,76.6812227 C52.0894144,76.6812227 50.7462687,75.338077 50.7462687,73.6812227 L50.7462687,43 C50.7462687,41.3431458 52.0894144,40 53.7462687,40 Z" id="Rectangle-2" fill="#005EB8"></path>
            <path d="M80.879602,62.88 L77.5840796,65.256 L75.040796,60.792 L72.318408,65.256 L69.0587065,62.88 L72.5691542,59.028 L67.6616915,57.912 L68.8437811,54.168 L73.6079602,56.22 L73.0348259,51 L77.118408,51 L76.5094527,56.184 L81.2736318,54.168 L82.4199005,57.912 L77.440796,59.028 L80.879602,62.88 Z M100.79602,62.88 L97.5004975,65.256 L94.9572139,60.792 L92.2348259,65.256 L88.9751244,62.88 L92.4855721,59.028 L87.5781095,57.912 L88.760199,54.168 L93.5243781,56.22 L92.9512438,51 L97.0348259,51 L96.4258706,56.184 L101.19005,54.168 L102.336318,57.912 L97.3572139,59.028 L100.79602,62.88 Z M120.712438,62.88 L117.416915,65.256 L114.873632,60.792 L112.151244,65.256 L108.891542,62.88 L112.40199,59.028 L107.494527,57.912 L108.676617,54.168 L113.440796,56.22 L112.867662,51 L116.951244,51 L116.342289,56.184 L121.106468,54.168 L122.252736,57.912 L117.273632,59.028 L120.712438,62.88 Z M140.628856,62.88 L137.333333,65.256 L134.79005,60.792 L132.067662,65.256 L128.80796,62.88 L132.318408,59.028 L127.410945,57.912 L128.593035,54.168 L133.357214,56.22 L132.78408,51 L136.867662,51 L136.258706,56.184 L141.022886,54.168 L142.169154,57.912 L137.19005,59.028 L140.628856,62.88 Z M160.545274,62.88 L157.249751,65.256 L154.706468,60.792 L151.98408,65.256 L148.724378,62.88 L152.234826,59.028 L147.327363,57.912 L148.509453,54.168 L153.273632,56.22 L152.700498,51 L156.78408,51 L156.175124,56.184 L160.939303,54.168 L162.085572,57.912 L157.106468,59.028 L160.545274,62.88 Z M180.461692,62.88 L177.166169,65.256 L174.622886,60.792 L171.900498,65.256 L168.640796,62.88 L172.151244,59.028 L167.243781,57.912 L168.425871,54.168 L173.19005,56.22 L172.616915,51 L176.700498,51 L176.091542,56.184 L180.855721,54.168 L182.00199,57.912 L177.022886,59.028 L180.461692,62.88 Z" id="******" fill="#FFFFFF"></path>
        </g>
    </g>
</svg>