<?xml version="1.0" encoding="UTF-8"?>
<svg width="156px" height="250px" viewBox="0 0 156 250" version="1.1" xmlns="http://www.w3.org/2000/svg" xmlns:xlink="http://www.w3.org/1999/xlink">
    <!-- Generator: Sketch 48.2 (47327) - http://www.bohemiancoding.com/sketch -->
    <title>develop_new_treatments</title>
    <desc>Created with Sketch.</desc>
    <defs></defs>
    <g id="Page-1" stroke="none" stroke-width="1" fill="none" fill-rule="evenodd">
        <g id="develop_new_treatments">
            <path d="M67.1225681,133.171206 L88.5233463,133.171206 L88.5233463,154.571984 L109.924125,154.571984 L109.924125,175.972763 L88.5233463,175.972763 L88.5233463,197.373541 L67.1225681,197.373541 L67.1225681,175.972763 L45.7217899,175.972763 L45.7217899,154.571984 L67.1225681,154.571984 L67.1225681,133.171206 Z M22.5233463,116.575875 C21.6215953,117.188716 21.4007782,117.957198 21.4007782,119.036965 L21.4007782,218.949416 C21.4007782,221.55642 22.4406615,223.793774 24.4241245,225.476654 C26.4075875,227.159533 28.7840467,227.811284 31.3433852,227.373541 L51.0894942,224.007782 C69.6595331,220.846304 85.9854086,220.846304 104.557393,224.007782 L124.300584,227.373541 C126.859922,227.811284 129.2393,227.159533 131.222763,225.476654 C133.206226,223.793774 134.243191,221.55642 134.243191,218.949416 C134.243191,185.642023 134.243191,152.344358 134.243191,119.036965 C134.243191,117.90856 133.988327,117.149805 133.042802,116.51751 C126.614786,112.217899 116.296693,106.332685 110.964008,101.167315 C99.9173152,102.081712 88.8696498,103.142023 77.8229572,103.142023 C66.7752918,103.142023 55.7266537,102.081712 44.6789883,101.167315 C38.9523346,106.712062 29.1167315,112.062257 22.5233463,116.575875 Z" id="Fill-257" fill="#005EB8"></path>
            <path d="M35.0194553,25.3210117 L120.622568,25.3210117 L120.622568,13.6478599 L35.0194553,13.6478599 L35.0194553,25.3210117 Z M110.851167,72.9863813 L44.790856,72.9863813 L44.790856,75.4766537 C44.790856,79.3190661 43.9455253,82.9182879 42.2733463,86.1284047 C40.6089494,89.3190661 38.1673152,92.0622568 34.9698444,94.192607 L16.4912451,106.51751 L16.483463,106.507782 L16.4669261,106.51751 C14.8881323,107.568093 13.6799611,108.881323 12.8832685,110.36965 C12.0894942,111.848249 11.6731518,113.589494 11.6731518,115.515564 L11.6731518,232.081712 C11.6731518,233.531128 12.2675097,234.844358 13.2256809,235.797665 C14.1964981,236.770428 15.5145914,237.373541 16.9416342,237.373541 C26.5953307,237.383268 36.6439689,236.177043 46.692607,234.980545 C56.938716,233.754864 67.1857977,232.538911 77.8249027,232.538911 C88.4649805,232.538911 98.7071984,233.774319 108.945525,235 C119,236.215953 129.05642,237.422179 138.708171,237.422179 L138.708171,237.402724 L138.712062,237.402724 L138.712062,237.422179 C140.135214,237.422179 141.451362,236.819066 142.422179,235.856031 C143.394942,234.883268 143.999027,233.560311 143.999027,232.140078 L143.976654,232.140078 L143.976654,115.564202 C143.976654,113.599222 143.571984,111.799611 142.772374,110.262646 C142.049611,108.871595 140.994163,107.655642 139.614786,106.682879 C139.523346,106.634241 139.435798,106.575875 139.346304,106.51751 L120.865759,94.192607 L120.873541,94.1828794 C117.685798,92.0622568 115.188716,89.3093385 113.474708,86.1089494 C111.755837,82.8891051 110.851167,79.2898833 110.851167,75.4766537 L110.851167,72.9863813 Z M44.790856,65.2042802 L110.851167,65.2042802 L110.851167,55.4766537 L44.790856,55.4766537 L44.790856,65.2042802 Z M133.272374,55.4766537 L122.524319,55.4766537 L122.524319,65.2140078 C124.539883,65.3599222 126.13035,67.0428016 126.13035,69.0953307 C126.13035,71.1478599 124.539883,72.8307393 122.524319,72.9766537 L122.524319,75.4766537 C122.524319,77.4124514 122.940661,79.1536965 123.734436,80.6322957 C124.531128,82.1206226 125.741245,83.4338521 127.318093,84.4844358 L127.335603,84.4941634 L127.340467,84.4844358 L145.821012,96.7996109 C145.948444,96.8871595 146.071984,96.9747082 146.189689,97.0719844 C149.218872,99.1731518 151.537938,101.828794 153.122568,104.883268 C154.800584,108.11284 155.649805,111.731518 155.649805,115.564202 L155.649805,232.140078 L155.627432,232.140078 C155.627432,236.819066 153.728599,241.050584 150.67607,244.105058 C147.622568,247.159533 143.38716,249.05642 138.712062,249.05642 L138.712062,249.075875 L138.708171,249.075875 L138.708171,249.05642 C128.066148,249.05642 117.821984,247.821012 107.577821,246.585603 C97.5272374,245.379377 87.4747082,244.173152 77.8249027,244.163424 C68.1673152,244.163424 58.1128405,245.359922 48.0603113,246.55642 C37.8200389,247.782101 27.5758755,249.007782 16.9416342,249.007782 C12.2626459,249.007782 8.02529183,247.110895 4.97178988,244.05642 C1.9036965,240.98249 0,236.750973 0,232.081712 L0,115.515564 C0,111.702335 0.904669261,108.11284 2.62354086,104.892996 C4.33754864,101.692607 6.83463035,98.9396887 10.0223735,96.8190661 L10.0145914,96.7996109 L28.4951362,84.4844358 C30.0223735,83.463035 31.1682879,82.1984436 31.9212062,80.7490272 C32.7169261,79.2315175 33.1177043,77.4416342 33.1177043,75.4766537 L33.1177043,72.9766537 C31.1021401,72.8307393 29.5116732,71.1478599 29.5116732,69.0953307 C29.5116732,67.0428016 31.1021401,65.3599222 33.1177043,65.2140078 L33.1177043,55.4766537 L22.3774319,55.4766537 L22.3774319,6.66342412 C22.3774319,2.99610895 25.3754864,0 29.040856,0 L126.608949,0 C130.274319,0 133.272374,2.99610895 133.272374,6.66342412 L133.272374,55.4766537 Z" id="Fill-258" fill="#425563"></path>
        </g>
    </g>
</svg>