<?xml version="1.0" encoding="UTF-8"?>
<svg width="368px" height="292px" viewBox="0 0 368 292" version="1.1" xmlns="http://www.w3.org/2000/svg" xmlns:xlink="http://www.w3.org/1999/xlink">
    <!-- Generator: Sketch 48.2 (47327) - http://www.bohemiancoding.com/sketch -->
    <title>Group</title>
    <desc>Created with Sketch.</desc>
    <defs></defs>
    <g id="Page-1" stroke="none" stroke-width="1" fill="none" fill-rule="evenodd">
        <g id="Group" fill="#425563">
            <path d="M114.727,73.886 C104.743,77.173 85.359,75.673 78.688,67.102 C78.376,66.7 78.372,66.161 78.677,65.754 C78.983,65.35 79.503,65.204 79.975,65.395 C91.591,70.072 101.96,74.116 114.727,73.886 Z M47.357,105.222 C43.583,88.772 38.841,65.802 58.704,58.183 C66.157,44.732 79.94,35.935 98.797,35.935 C117.656,35.935 135.577,41.726 146.763,64.037 C151.214,66.51 152.962,68.603 154.31,73.863 C156.707,83.214 154.691,97.25 153.027,105.245 C156.545,104.479 160.218,106.427 160.359,112.329 C160.597,122.369 157.49,120.949 152.175,128.143 C150.874,129.904 147.815,131.311 144.718,131.32 C142.134,137.483 139.039,143.487 135.523,148.92 C126.318,163.144 114.113,173.657 100.251,173.657 C86.389,173.657 74.183,163.144 64.978,148.92 C61.462,143.487 58.367,137.483 55.782,131.32 C52.687,131.311 49.627,129.904 48.326,128.143 C43.012,120.949 39.904,122.369 40.143,112.329 C40.282,106.492 43.874,104.523 47.357,105.222 Z M71.665,144.578 C79.509,156.697 89.498,165.656 100.251,165.656 C111.003,165.656 120.991,156.7 128.835,144.578 C138.042,130.35 141.263,118.197 141.667,101.182 C141.034,88.568 135.087,79.558 129.153,76.2 C118.958,82.571 105.941,84.364 94.19,82.248 C94.874,82.458 95.564,82.661 96.259,82.846 C103.982,84.91 112.476,85.336 120.22,83.142 C121.958,82.652 123.767,83.665 124.257,85.403 C124.747,87.14 123.736,88.949 121.997,89.439 C113.154,91.945 103.398,91.541 94.568,89.182 C87.099,87.186 80.148,83.78 74.307,79.404 C73.083,78.491 71.909,77.532 70.788,76.532 C65.046,80.129 59.447,88.962 58.833,101.182 C59.239,118.197 62.459,130.35 71.665,144.578 Z M131.156,179.617 C131.98,177.039 134.709,175.582 137.308,176.334 C140.645,177.301 144.337,178.315 148.152,179.422 C148.456,179.66 148.8,179.854 149.179,179.998 C152.177,181.14 154.126,184.856 154.98,190.04 C155.88,195.515 155.49,202.378 153.788,209.676 C143.947,208.231 136.077,214.08 131.663,222.545 L116.767,251.113 C114.931,254.634 115.349,258.603 116.97,262.102 C118.556,265.519 121.208,267.953 124.75,269.237 C126.822,269.988 129.109,268.917 129.861,266.846 C130.611,264.775 129.54,262.488 127.47,261.737 C125.952,261.187 124.9,260.222 124.22,258.756 C123.663,257.558 123.179,256.049 123.833,254.796 L138.726,226.232 C142.072,219.816 147.945,215.58 155.296,218.249 C162.642,220.92 164.405,227.931 162.839,234.988 L155.859,266.434 C155.564,267.757 154.17,268.678 153.024,269.214 C151.546,269.908 150.122,269.969 148.589,269.412 C146.519,268.661 144.23,269.731 143.48,271.802 C142.729,273.873 143.8,276.161 145.87,276.912 C149.401,278.192 152.999,278.028 156.399,276.434 C159.955,274.766 162.765,272.093 163.64,268.152 L170.62,236.705 C172.745,227.133 170.265,217.378 161.37,212.298 C163.468,203.691 163.952,195.434 162.855,188.759 C162.563,186.987 162.157,185.312 161.641,183.756 C171.918,187.528 181.103,192.374 184.535,199.205 C194.472,218.886 197.972,272.13 200.25,291.935 L0.251,291.935 C2.529,272.13 6.029,218.886 15.965,199.205 C19.398,192.374 28.579,187.528 38.854,183.759 C37.712,187.726 37.513,192.549 38.28,198.262 C39.581,207.965 43.79,220.505 51.042,236.051 C48.263,238.609 46.522,242.273 46.522,246.346 C46.522,254.076 52.801,260.343 60.545,260.343 C68.29,260.343 74.57,254.076 74.57,246.346 C74.57,238.613 68.29,232.345 60.545,232.345 C59.747,232.345 58.966,232.412 58.204,232.539 C51.345,217.83 47.381,206.103 46.186,197.197 C44.911,187.693 46.912,181.89 51.999,179.523 C55.939,178.377 59.754,177.33 63.193,176.334 C65.792,175.582 68.522,177.039 69.345,179.617 C74.315,195.186 81.407,208.689 89.552,222.125 L93.558,205.896 L89.99,198.708 L100.206,191.806 L110.421,198.708 L106.853,205.895 L110.911,222.186 C119.074,208.731 126.179,195.21 131.156,179.617 Z" id="Fill-17"></path>
            <path d="M294.993,143.862083 C294.317,140.780083 297.776,137.283083 300.983,138.650083 C305.708,140.659083 311.716,143.045083 318.098,145.656083 C320.376,146.587083 321.493,146.809083 323.239,148.408083 C330.997,155.517083 327.094,168.747083 323.329,179.486083 C312.823,177.496083 303.77,183.313083 298.553,193.247083 L290.157,209.234083 C286.6,216.007083 290.667,225.687083 298.702,228.606083 C303.637,230.396083 306.358,222.895083 301.421,221.106083 C297.706,219.756083 296.042,215.195083 297.219,212.953083 L305.616,196.964083 C309.458,189.649083 316.43,184.810083 324.772,188.145083 C330.509,190.438083 334.991,196.597083 332.759,206.848083 L328.915,224.491083 C328.378,226.951083 324.223,229.401083 320.452,228.031083 C315.516,226.240083 312.794,233.739083 317.733,235.531083 C325.743,238.439083 335.096,233.663083 336.727,226.178083 L340.571,208.535083 C342.921,197.748083 339.862,187.606083 330.817,182.295083 C334.032,173.160083 337.387,162.362083 335.053,153.121083 C343.737,157.341083 351.157,161.828083 354.302,166.215083 C361.983,176.925083 365.589,234.859083 367.7,256.146083 C256.9,257.048694 201.5,257.5 201.5,257.5 C201.5,257.5 199,233.5 193.5,210.5 C189.833333,195.166667 182.666667,185.833333 172,182.5 C174.399658,173.360597 176.215324,167.932291 177.447,166.215083 C180.611,161.800083 187.921,157.340083 196.529,153.142083 C195.327,156.812083 194.861,160.867083 195.052,165.156083 C195.519,175.659083 199.831,186.473083 205.208,195.424083 C202.925,197.919083 201.472,201.203083 201.308,204.848083 C200.939,213.106083 207.333,220.101083 215.593,220.473083 C223.853,220.842083 230.849,214.447083 231.218,206.188083 C231.589,197.928083 225.194,190.930083 216.934,190.561083 C215.208,190.484083 213.536,190.703083 211.97,191.172083 C207.337,183.415083 203.425,173.908083 203.021,164.814083 C202.716,157.979083 204.503,152.088083 208.913,148.273083 C210.948,146.513083 212.698,145.973083 215.139,144.981083 C221.177,142.517083 226.923,140.265083 231.531,138.324083 C234.575,137.038083 237.771,139.782083 236.964,142.985083 C232.66,160.084083 244.14,172.918083 260.152,189.677083 L254.603,195.362083 C253.066,196.939083 253.101,199.465083 254.681,201.003083 C256.259,202.540083 258.784,202.503083 260.322,200.924083 C265.044,196.087083 269.786,191.262083 274.477,186.394083 C288.659,171.669083 298.444,159.597083 294.993,143.862083 Z" id="Fill-20"></path>
            <path d="M212.954,58.776 C212.418,78.611 210.656,108.937 205,121.854 C218.216,124.786 233.495,126.619 249.293,127.356 L249.293,116.603 C247.782,115.13 246.335,113.466 244.966,111.631 C238.562,103.051 233.895,90.913 231.921,77.409 C231.321,73.308 231.226,69.098 231.652,64.972 C243.934,56.902 253.145,50.013 261.415,37.722 C260.927,47.922 258.722,52.86 254.892,61.057 C266.485,54.032 273.834,49.679 279.641,40.539 C285.614,47.928 290.92,54.98 298.192,60.214 C299.364,65.83 299.491,71.73 298.663,77.409 C296.688,90.913 292.022,103.051 285.618,111.631 C284.249,113.463 282.803,115.128 281.291,116.6 L281.291,127.356 C297.092,126.621 312.375,124.789 325.594,121.86 C319.959,108.922 318.331,78.494 317.582,58.715 C316.758,36.931 311.608,7.225 283.733,8.099 C279.625,2.268 271.668,0 263.097,0 C226.555,0 213.772,28.546 212.954,58.776" id="Fill-21"></path>
        </g>
    </g>
</svg>