<?xml version="1.0" encoding="UTF-8"?>
<svg width="183px" height="250px" viewBox="0 0 183 250" version="1.1" xmlns="http://www.w3.org/2000/svg" xmlns:xlink="http://www.w3.org/1999/xlink">
    <!-- Generator: Sketch 48.2 (47327) - http://www.bohemiancoding.com/sketch -->
    <title>evaluate_nhs_policy</title>
    <desc>Created with Sketch.</desc>
    <defs></defs>
    <g id="Page-1" stroke="none" stroke-width="1" fill="none" fill-rule="evenodd">
        <g id="evaluate_nhs_policy">
            <path d="M159.431952,23.1213873 L155.293382,23.1213873 C155.907701,24.833373 156.295692,26.6479699 156.295692,28.5651778 L156.295692,33.922559 L159.431952,33.922559 C165.9793,33.922559 171.303398,39.3069432 171.303398,45.9226609 L171.303398,227.198726 C171.303398,233.782041 165.9793,239.150223 159.431952,239.150223 L22.6489724,239.198828 C16.1016249,239.198828 10.7775267,233.814444 10.7775267,227.198726 L10.7775267,45.9226609 C10.7775267,39.3393467 16.1016249,33.9711643 22.6543611,33.9711643 L25.7852326,33.9711643 L25.7852326,28.5651778 C25.7852326,26.6641716 26.1732236,24.8657765 26.7713763,23.1699926 L22.6489724,23.1699926 C10.1632077,23.1699926 0,33.3770999 0,45.9226609 L0,227.198726 C0,239.77129 10.1632077,250 22.6489724,250 L22.6543611,250 L159.431952,249.951395 C171.917717,249.951395 182.080925,239.744287 182.080925,227.198726 L182.080925,45.9226609 C182.080925,33.3500969 171.917717,23.1213873 159.431952,23.1213873" id="Fill-67" fill="#425563"></path>
            <path d="M140.521907,23.0964645 L114.405568,23.0964645 C114.405568,23.0857419 114.405568,23.0750193 114.405568,23.0642967 C114.405568,10.3473019 103.927528,0 91.0431784,0 C78.1533966,0 67.6753566,10.3473019 67.6753566,23.0642967 C67.6753566,23.0750193 67.6753566,23.0857419 67.6753566,23.0964645 L41.5590183,23.0964645 C38.5552049,23.0964645 36.1271676,25.4983252 36.1271676,28.4577608 L36.1271676,48.1069118 C36.1271676,51.0663473 38.5552049,53.4682081 41.5590183,53.4682081 L140.521907,53.4682081 C143.52572,53.4682081 145.953757,51.0663473 145.953757,48.1069118 L145.953757,28.4577608 C145.953757,25.4983252 143.52572,23.0964645 140.521907,23.0964645 Z M91.0431784,35.4006395 C84.1501598,35.4006395 78.539058,29.8677817 78.539058,23.0642967 C78.539058,16.2554504 84.1501598,10.7225926 91.0431784,10.7225926 C97.9361969,10.7225926 103.541867,16.2554504 103.541867,23.0642967 C103.541867,29.8677817 97.9361969,35.4006395 91.0431784,35.4006395 Z" id="Fill-68" fill="#425563"></path>
            <path d="M149.019446,143.063584 L74.9689937,143.063584 C73.4650729,143.063584 72.2543353,144.357088 72.2543353,145.95087 C72.2543353,147.550426 73.4650729,148.843931 74.9689937,148.843931 L149.019446,148.843931 C150.517937,148.843931 151.734104,147.550426 151.734104,145.95087 C151.734104,144.357088 150.517937,143.063584 149.019446,143.063584" id="Fill-69" fill="#005EB8"></path>
            <path d="M149.019446,106.936416 L74.9689937,106.936416 C73.4650729,106.936416 72.2543353,108.225434 72.2543353,109.82659 C72.2543353,111.421965 73.4650729,112.716763 74.9689937,112.716763 L149.019446,112.716763 C150.517937,112.716763 151.734104,111.421965 151.734104,109.82659 C151.734104,108.225434 150.517937,106.936416 149.019446,106.936416" id="Fill-70" fill="#005EB8"></path>
            <path d="M149.019446,213.872832 L74.9689937,213.872832 C73.4650729,213.872832 72.2543353,215.16763 72.2543353,216.763006 C72.2543353,218.358382 73.4650729,219.653179 74.9689937,219.653179 L149.019446,219.653179 C150.517937,219.653179 151.734104,218.358382 151.734104,216.763006 C151.734104,215.16763 150.517937,213.872832 149.019446,213.872832" id="Fill-71" fill="#005EB8"></path>
            <path d="M149.019446,179.190751 L74.9689937,179.190751 C73.4650729,179.190751 72.2543353,180.485549 72.2543353,182.080925 C72.2543353,183.682081 73.4650729,184.971098 74.9689937,184.971098 L149.019446,184.971098 C150.517937,184.971098 151.734104,183.682081 151.734104,182.080925 C151.734104,180.485549 150.517937,179.190751 149.019446,179.190751" id="Fill-72" fill="#005EB8"></path>
            <path d="M55.1573278,131.50289 L34.438048,131.50289 C32.9773784,131.50289 31.7919075,132.688361 31.7919075,134.149031 L31.7919075,154.86831 C31.7919075,156.32898 32.9773784,157.514451 34.438048,157.514451 L55.1573278,157.514451 C56.6232896,157.514451 57.8034682,156.32898 57.8034682,154.86831 L57.8034682,134.149031 C57.8034682,132.688361 56.6232896,131.50289 55.1573278,131.50289 Z M37.0841884,152.22217 L52.5111873,152.22217 L52.5111873,136.800463 L37.0841884,136.800463 L37.0841884,152.22217 Z" id="Fill-73" fill="#005EB8"></path>
            <path d="M72.2543353,75.1445087 C72.2543353,76.7456647 73.4650729,78.0346821 74.9689937,78.0346821 L149.019446,78.0346821 C150.517937,78.0346821 151.734104,76.7456647 151.734104,75.1445087 C151.734104,73.5491329 150.517937,72.2543353 149.019446,72.2543353 L74.9689937,72.2543353 C73.4650729,72.2543353 72.2543353,73.5491329 72.2543353,75.1445087" id="Fill-74" fill="#005EB8"></path>
            <path d="M51.3721765,102.160581 L42.1645683,113.099636 L37.9166411,109.404315 C36.7473314,108.375953 34.9566493,108.505911 33.9342094,109.681181 C32.9061206,110.856452 33.0303951,112.641959 34.2053536,113.66467 L40.6224352,119.247205 C41.1364795,119.699232 41.7973937,119.942197 42.4752545,119.942197 C42.5486894,119.942197 42.6221243,119.936546 42.6899104,119.930896 C43.4468548,119.874392 44.1473109,119.518421 44.6331111,118.936436 L55.6935386,105.805049 C56.699032,104.612828 56.5465133,102.832971 55.3546082,101.82156 C54.1570543,100.81015 52.372021,100.97401 51.3721765,102.160581" id="Fill-75" fill="#005EB8"></path>
            <path d="M55.1573278,62.1387283 L34.438048,62.1387283 C32.9773784,62.1387283 31.7919075,63.3244405 31.7919075,64.7854073 L31.7919075,85.5036101 C31.7919075,86.9698702 32.9773784,88.150289 34.438048,88.150289 L55.1573278,88.150289 C56.6232896,88.150289 57.8034682,86.9698702 57.8034682,85.5036101 L57.8034682,64.7854073 C57.8034682,63.3244405 56.6232896,62.1387283 55.1573278,62.1387283 Z M37.0841884,82.8569311 L52.5111873,82.8569311 L52.5111873,67.4320862 L37.0841884,67.4320862 L37.0841884,82.8569311 Z" id="Fill-76" fill="#005EB8"></path>
            <path d="M55.1573278,167.630058 L34.438048,167.630058 C32.9773784,167.630058 31.7919075,168.815529 31.7919075,170.276198 L31.7919075,190.995478 C31.7919075,192.46144 32.9773784,193.641618 34.438048,193.641618 L55.1573278,193.641618 C56.6232896,193.641618 57.8034682,192.46144 57.8034682,190.995478 L57.8034682,170.276198 C57.8034682,168.815529 56.6232896,167.630058 55.1573278,167.630058 Z M37.0841884,188.349338 L52.5111873,188.349338 L52.5111873,172.922339 L37.0841884,172.922339 L37.0841884,188.349338 Z" id="Fill-77" fill="#005EB8"></path>
            <path d="M55.1573278,203.757225 L34.438048,203.757225 C32.9773784,203.757225 31.7919075,204.942696 31.7919075,206.403366 L31.7919075,227.122646 C31.7919075,228.583315 32.9773784,229.768786 34.438048,229.768786 L55.1573278,229.768786 C56.6232896,229.768786 57.8034682,228.583315 57.8034682,227.122646 L57.8034682,206.403366 C57.8034682,204.942696 56.6232896,203.757225 55.1573278,203.757225 Z M37.0841884,224.476505 L52.5111873,224.476505 L52.5111873,209.049506 L37.0841884,209.049506 L37.0841884,224.476505 Z" id="Fill-78" fill="#005EB8"></path>
        </g>
    </g>
</svg>