<?xml version="1.0" encoding="UTF-8"?>
<svg width="200px" height="200px" viewBox="0 0 200 200" version="1.1" xmlns="http://www.w3.org/2000/svg" xmlns:xlink="http://www.w3.org/1999/xlink">
    <!-- Generator: Sketch 48.2 (47327) - http://www.bohemiancoding.com/sketch -->
    <title>search</title>
    <desc>Created with Sketch.</desc>
    <defs></defs>
    <g id="Page-1" stroke="none" stroke-width="1" fill="none" fill-rule="evenodd">
        <g id="search" fill="#FFFFFF">
            <path d="M100,125 C112.375311,125 125.94803,126.785348 140.718563,130.356098 C157.485114,134.521972 171.057832,140.076388 181.437126,147.019512 C193.812437,155.152886 200,164.277998 200,174.395122 L200,199.390244 L0,199.390244 L0,174.395122 C0,164.277998 6.18756287,155.152886 18.5628743,147.019512 C28.9421677,140.076388 42.5148862,134.521972 59.2814371,130.356098 C74.0519701,126.785348 87.6246886,125 100,125 Z" id="Path"></path>
            <path d="M153.009363,44.4956267 C150.691115,44.0821331 148.31891,43.8709677 145.913894,43.8709677 C135.248157,43.8709677 125.222593,48.0244701 117.68913,55.5617432 C110.155668,63.0990164 105.990734,73.1093381 105.96787,83.7484011 C105.949059,91.2622216 107.999826,98.45575 111.852856,104.680745 C108.288176,105.431218 104.606046,105.806452 100.806452,105.806452 C91.2455799,105.806452 82.4284637,103.430582 74.3548387,98.6787715 C66.2812137,93.926961 59.8542796,87.5385116 55.0738438,79.5132316 C50.2934079,71.4879516 47.9032258,62.7236326 47.9032258,53.2200116 C47.9032258,43.7163906 50.2934079,34.8464773 55.0738438,26.6100058 C59.8542796,18.3735342 66.2812137,11.8794906 74.3548387,7.12768012 C82.4284637,2.37586962 91.2455799,0 100.806452,0 C110.367323,0 119.184439,2.37586962 127.258065,7.12768012 C135.33169,11.8794906 141.758624,18.3735342 146.539059,26.6100058 C149.825541,32.2724628 151.982301,38.2343076 153.009363,44.4956267 Z" id="Combined-Shape"></path>
            <path d="M195.484574,122.681384 C198.1166,125.31004 198.12334,129.579921 195.491314,132.215316 C194.176986,133.533014 192.44814,134.193548 190.719293,134.193548 C188.997187,134.193548 187.27508,133.536384 185.957382,132.225427 L171.051556,117.346561 C170.165227,116.463603 169.605796,115.39192 169.312599,114.262946 C163.374534,118.499126 156.304124,120.814365 148.869746,120.814365 C139.473987,120.814365 130.64103,117.157837 124.005359,110.515427 C117.342728,103.866276 113.6862,95.0130979 113.709791,85.5903782 C113.730011,76.1811387 117.413499,67.3279611 124.076131,60.6619598 C130.738762,53.9959585 139.60542,50.3225806 149.03825,50.3225806 C158.292466,50.3225806 166.99736,53.8577856 173.612811,60.2845118 C173.973408,60.5338971 174.283455,60.8540539 174.51936,61.2247617 C180.780953,67.8031412 184.218425,76.3900832 184.218425,85.5094965 C184.218425,93.0112755 181.856005,100.132236 177.545684,106.087153 C178.651067,106.380349 179.7059,106.933041 180.575378,107.802519 L195.484574,122.681384 Z M148.587915,113.785692 C156.224496,113.785692 163.409489,110.803179 168.821823,105.390844 C174.220678,100.00547 177.193081,92.8440681 177.193081,85.2209665 C177.193081,77.5911248 174.224048,70.4263529 168.825193,65.0443488 C168.747682,64.9702073 168.67691,64.8859555 168.609509,64.8050738 C163.257835,59.625274 156.227866,56.7741935 148.753048,56.7741935 C141.119836,56.7741935 133.948324,59.7465966 128.55621,65.1420809 C123.160726,70.5375653 120.181582,77.7023371 120.161362,85.3153285 C120.144512,92.9316899 123.100064,100.086352 128.485438,105.458245 C133.853962,110.830139 140.991774,113.785692 148.587915,113.785692 Z" id="Fill-119"></path>
        </g>
    </g>
</svg>