<?xml version="1.0" encoding="UTF-8"?>
<svg width="228px" height="250px" viewBox="0 0 228 250" version="1.1" xmlns="http://www.w3.org/2000/svg" xmlns:xlink="http://www.w3.org/1999/xlink">
    <!-- Generator: Sketch 48.2 (47327) - http://www.bohemiancoding.com/sketch -->
    <title>improve_patient_safety</title>
    <desc>Created with Sketch.</desc>
    <defs></defs>
    <g id="Page-1" stroke="none" stroke-width="1" fill="none" fill-rule="evenodd">
        <g id="improve_patient_safety">
            <path d="M114.585645,45.3431373 C127.10366,45.3431373 137.254902,35.1918956 137.254902,22.6692573 C137.254902,10.1466191 127.10366,0 114.585645,0 C102.063006,0 91.9117647,10.1466191 91.9117647,22.6692573 C91.9117647,35.1918956 102.063006,45.3431373 114.585645,45.3431373" id="Fill-89" fill="#425563"></path>
            <path d="M15.3790712,33.534365 C8.88392203,31.7102975 2.2034554,35.6461989 0.431640159,42.3019566 C-1.33565514,48.9577143 2.48369148,55.8316175 8.96980083,57.6464022 L61.2745098,72.3039216 C60.3388829,64.3485738 59.7919705,55.613472 59.7512911,45.9686571 L15.3790712,33.534365" id="Fill-90" fill="#425563"></path>
            <path d="M116.683688,146.716053 C115.988116,146.825653 115.287998,146.880453 114.58788,146.880453 C113.883215,146.880453 113.183097,146.825653 112.487525,146.716053 C111.346423,146.533387 96.2938822,143.77513 82.7552331,126.22549 L78.4408684,237.227077 C78.1771875,244.008554 83.4371664,249.726001 90.1973985,249.995433 C90.3565163,250 90.5201803,250 90.6838443,250 C97.2213115,250 102.649501,244.807718 102.908635,238.186074 L105.768209,164.617325 C106.2001,160.087208 109.959826,156.52522 114.58788,156.52522 C119.188656,156.52522 122.934743,160.050674 123.398458,164.553392 L126.262578,238.186074 C126.517166,244.807718 131.945355,250 138.487369,250 C138.646486,250 138.81015,250 138.973814,249.995433 C145.7295,249.726001 150.989479,244.008554 150.725798,237.227077 L146.411434,126.234623 C132.877331,143.77513 117.82479,146.533387 116.683688,146.716053" id="Fill-91" fill="#425563"></path>
            <path d="M227.509536,42.3034293 C225.742241,35.6433572 219.070814,31.7076491 212.562105,33.5362682 L168.189885,45.9699499 C168.149206,55.6142913 167.602294,64.3489643 166.666667,72.3039216 L218.971376,57.6471217 C225.457485,55.8324261 229.276832,48.9588603 227.509536,42.3034293" id="Fill-92" fill="#425563"></path>
            <path d="M156.895548,39.7262371 C155.409569,38.9559665 153.614395,39.0653541 152.229942,39.9997059 C152.059193,40.1182091 134.762762,51.6950565 113.972896,51.6950565 C93.1830292,51.6950565 75.8819838,40.1182091 75.7112346,39.9997059 C74.3313966,39.0653541 72.5316079,38.9559665 71.0456286,39.7262371 C69.5596492,40.5010655 68.627451,42.0188175 68.627451,43.673304 C68.627451,130.413061 111.439347,138.138556 113.26221,138.425698 C113.497567,138.462161 113.732924,138.480392 113.972896,138.480392 C114.208253,138.480392 114.44361,138.462161 114.678967,138.425698 C116.506444,138.138556 159.313725,130.413061 159.313725,43.673304 C159.313725,42.0188175 158.381527,40.4965076 156.895548,39.7262371 Z M113.972896,129.424016 C108.896569,127.960958 79.9338157,116.721388 77.7925286,51.4762815 C85.5362347,55.3732124 98.7716037,60.6192563 113.972896,60.6192563 C129.169573,60.6192563 142.409557,55.3732124 150.153263,51.4762815 C148.007361,116.721388 119.044608,127.960958 113.972896,129.424016 Z" id="Fill-93" fill="#005EB8"></path>
            <path d="M113.970588,120.098039 C120.085951,116.943099 135.535287,105.114375 139.705882,64.9509804 C132.303075,67.4252626 123.485893,69.3522593 113.970588,69.3522593 L113.970588,120.098039" id="Fill-94" fill="#005EB8"></path>
        </g>
    </g>
</svg>