<?xml version="1.0" encoding="UTF-8"?>
<svg width="252px" height="250px" viewBox="0 0 252 250" version="1.1" xmlns="http://www.w3.org/2000/svg" xmlns:xlink="http://www.w3.org/1999/xlink">
    <!-- Generator: Sketch 48.2 (47327) - http://www.bohemiancoding.com/sketch -->
    <title>improve_individual_care</title>
    <desc>Created with Sketch.</desc>
    <defs></defs>
    <g id="Page-1" stroke="none" stroke-width="1" fill="none" fill-rule="evenodd">
        <g id="improve_individual_care">
            <path d="M115.94246,9.21626984 L134.375,9.21626984 L134.375,27.6488095 L152.80754,27.6488095 L152.80754,46.0813492 L134.375,46.0813492 L134.375,64.5138889 L115.94246,64.5138889 L115.94246,46.0813492 L97.5099206,46.0813492 L97.5099206,27.6488095 L115.94246,27.6488095 L115.94246,9.21626984 Z M99.8115079,0 L150.496032,0 C156.835317,0 162.013889,5.18849206 162.013889,11.5178571 L162.013889,62.202381 C162.013889,68.5416667 156.835317,73.7202381 150.496032,73.7202381 L99.8115079,73.7202381 C93.4821429,73.7202381 88.2936508,68.5416667 88.2936508,62.202381 L88.2936508,11.5178571 C88.2936508,5.18849206 93.4821429,0 99.8115079,0 Z" id="Fill-22" fill="#005EB8"></path>
            <path d="M240.079365,98.2142857 C240.079365,94.9305556 242.738095,92.2619048 246.031746,92.2619048 C249.315476,92.2619048 251.984127,94.9305556 251.984127,98.2142857 L251.984127,249.464286 L240.079365,249.464286 L240.079365,98.2142857 Z M21.8154762,249.464286 L21.8154762,187.926587 C91.2599206,187.926587 160.704365,187.926587 230.14881,187.926587 L230.14881,249.464286 L218.244048,249.464286 L218.244048,199.831349 L33.7202381,199.831349 L33.7202381,249.464286 L21.8154762,249.464286 Z M0,141.140873 C0,137.847222 2.65873016,135.188492 5.95238095,135.188492 C9.23611111,135.188492 11.9047619,137.847222 11.9047619,141.140873 L11.9047619,249.464286 L0,249.464286 L0,141.140873 Z" id="Fill-23" fill="#425563"></path>
            <path d="M191.914683,142.945278 C191.825397,142.627818 191.746032,142.300437 191.656746,141.982977 C188.402778,129.85004 175.853175,122.518691 163.710317,125.772659 L139.295635,132.230993 L132.936508,132.230993 L132.936508,150.088136 L164.642857,150.088136 L164.642857,150.167501 L191.914683,142.945278" id="Fill-24" fill="#425563"></path>
            <path d="M211.309524,100.198413 C221.71627,100.198413 230.15873,108.640873 230.15873,119.047619 C230.15873,129.454365 221.71627,137.896825 211.309524,137.896825 C200.902778,137.896825 192.460317,129.454365 192.460317,119.047619 C192.460317,108.640873 200.902778,100.198413 211.309524,100.198413" id="Fill-25" fill="#425563"></path>
            <path d="M175.595238,158.164683 L125.992063,158.164683 L125.992063,132.371032 L118.055556,132.371032 L118.055556,158.164683 L110.119048,158.164683 L110.119048,132.371032 L43.6507937,132.371032 C31.6269841,132.371032 21.8253968,142.18254 21.8253968,154.196429 L21.8253968,178.005952 C32.2293786,178.005952 39.8848019,178.005952 44.7916667,178.005952 C86.1810982,178.005952 147.970119,178.005952 230.15873,178.005952 C230.15873,167.80754 230.15873,157.619048 230.178571,147.420635 C230.178571,145.456349 228.333333,144.027778 226.428571,144.543651 C207.172619,149.702381 195.93254,152.708333 175.595238,158.164683 Z" id="Path" fill="#005EB8"></path>
        </g>
    </g>
</svg>