<?xml version="1.0" encoding="UTF-8"?>
<svg width="227px" height="210px" viewBox="0 0 227 210" version="1.1" xmlns="http://www.w3.org/2000/svg" xmlns:xlink="http://www.w3.org/1999/xlink">
    <!-- Generator: Sketch 48.2 (47327) - http://www.bohemiancoding.com/sketch -->
    <title>Group</title>
    <desc>Created with Sketch.</desc>
    <defs></defs>
    <g id="Artboard" stroke="none" stroke-width="1" fill="none" fill-rule="evenodd" transform="translate(-950.000000, -154.000000)">
        <g id="Group" transform="translate(950.000000, 154.000000)">
            <path d="M149.859155,188.309859 L0,188.309859 C0,179.809719 0.326137137,173.271247 0.978421196,168.694249 C2.28298931,162.155679 15.4915434,154.146052 40.6044796,144.665126 C44.518184,143.357412 49.2471725,141.722794 54.791587,139.761224 C62.2928537,137.145796 66.695705,135.102523 68.0002731,133.631345 C69.3048412,132.160167 69.9571155,127.82843 69.9571155,120.636004 L69.9571155,117.693662 C69.9571155,113.77052 68.4894984,109.929168 65.5542201,106.169491 C62.6189419,102.409813 60.3359819,95.7896112 58.7052718,86.3086854 C58.0529877,83.0394007 57.0745763,80.4240122 55.7700082,78.4624413 C54.4654401,76.5008705 53.1608915,72.5777876 51.8563234,66.6930751 C50.8778973,63.7507189 50.796363,60.9718685 51.6117181,58.3564407 C52.4270732,55.7410129 52.8347446,54.1063951 52.8347446,53.4525381 C52.1824605,48.2216826 51.5301863,42.8274437 50.8779022,37.2696596 C50.2256181,29.7503047 53.4869895,21.6589464 60.6621142,12.9953418 C67.8372388,4.3317373 78.9259015,0 93.9284348,0 C108.930968,0 120.019631,4.3317373 127.194755,12.9953418 C134.36988,21.6589464 137.631251,29.7503047 136.978967,37.2696596 C136.326683,42.8274437 135.674409,48.2216826 135.022125,53.4525381 C135.022125,54.1063951 135.429796,55.7410129 136.245152,58.3564407 C137.060507,60.9718685 136.978972,63.7507189 136.000546,66.6930751 C134.695978,72.5777876 133.39143,76.5008705 132.086861,78.4624413 C130.782293,80.4240122 129.803882,83.0394007 129.151598,86.3086854 C127.520888,95.7896112 125.237928,102.409813 122.302649,106.169491 C119.367371,109.929168 117.899754,113.77052 117.899754,117.693662 C117.899754,127.501516 118.878166,133.059217 120.835018,134.366931 C121.322405,134.855493 125.906709,136.712984 134.588029,139.939442 C130.913127,143.960862 128.921381,149.59729 128.921381,156.549878 C128.921381,168.665402 140.000562,178.812154 140.403442,179.165523 L149.859155,188.309859 Z" id="Combined-Shape" fill="#425563"></path>
            <path d="M200.788732,177.859155 L216.226673,177.859155 C215.619278,178.510013 215.214349,178.860475 215.113116,178.960607 L183.579225,209.00022 C182.971831,209.601012 182.161972,209.901408 181.352113,209.901408 C180.542254,209.901408 179.732394,209.601012 179.125,209.00022 L147.540493,178.860475 C147.439261,178.810409 147.034331,178.459947 146.477553,177.859155 L165.15493,177.859155 C166.622799,177.859155 167.93882,176.857835 168.293134,175.455986 L171.836268,161.387434 L181.453345,194.78147 C181.858275,196.133253 183.12368,197.084507 184.591549,197.084507 C186.008803,197.084507 187.274208,196.133253 187.679137,194.78147 L195.069102,170.49945 L197.903609,176.106844 C198.460387,177.158231 199.573944,177.859155 200.788732,177.859155 Z M226.704225,156.430898 C226.704225,162.18849 224.173415,167.445423 221.490757,171.450704 L202.81338,171.450704 L197.194982,160.386114 C196.638204,159.234595 195.322183,158.533671 194.056778,158.633803 C192.690141,158.784001 191.576585,159.635123 191.222271,160.93684 L184.692782,182.465229 L174.772007,148.119938 C174.367077,146.768156 173.101673,145.816901 171.583187,145.816901 C170.115317,145.816901 168.849912,146.818222 168.495599,148.22007 L162.62412,171.450704 L141.213468,171.450704 C138.53081,167.445423 136,162.18849 136,156.430898 C136,141.761554 145.060299,133 160.194542,133 C169.052377,133 177.353433,139.909111 181.352113,143.814261 C185.350792,139.909111 193.651849,133 202.509683,133 C217.643926,133 226.704225,141.761554 226.704225,156.430898 Z" id="heartbeat---FontAwesome" fill="#005EB8"></path>
        </g>
    </g>
</svg>