<?xml version="1.0" encoding="UTF-8"?>
<svg width="82px" height="82px" viewBox="0 0 82 82" version="1.1" xmlns="http://www.w3.org/2000/svg" xmlns:xlink="http://www.w3.org/1999/xlink">
    <!-- Generator: Sketch 48.2 (47327) - http://www.bohemiancoding.com/sketch -->
    <title>info_outline - material</title>
    <desc>Created with Sketch.</desc>
    <defs></defs>
    <g id="white_bg-copy" stroke="none" stroke-width="1" fill="none" fill-rule="evenodd" transform="translate(-241.000000, -399.000000)">
        <path d="M278,427 L278,419 L286,419 L286,427 L278,427 Z M282,473 C287.928173,473 293.461052,471.485045 298.598802,468.45509 C303.604815,465.556872 307.556872,461.604815 310.45509,456.598802 C313.485045,451.461052 315,445.928173 315,440 C315,434.071827 313.485045,428.538948 310.45509,423.401198 C307.556872,418.395185 303.604815,414.443128 298.598802,411.54491 C293.461052,408.514955 287.928173,407 282,407 C276.071827,407 270.538948,408.514955 265.401198,411.54491 C260.395185,414.443128 256.443128,418.395185 253.54491,423.401198 C250.514955,428.538948 249,434.071827 249,440 C249,445.928173 250.514955,451.461052 253.54491,456.598802 C256.443128,461.604815 260.395185,465.556872 265.401198,468.45509 C270.538948,471.485045 276.071827,473 282,473 Z M282,399 C289.490422,399 296.422244,400.872577 302.795673,404.617788 C308.971986,408.165883 313.834117,413.028014 317.382212,419.204327 C321.127423,425.577756 323,432.509578 323,440 C323,447.490422 321.127423,454.422244 317.382212,460.795673 C313.834117,466.971986 308.971986,471.834117 302.795673,475.382212 C296.422244,479.127423 289.490422,481 282,481 C274.509578,481 267.577756,479.127423 261.204327,475.382212 C255.028014,471.768411 250.165883,466.873428 246.617788,460.697115 C242.872577,454.323686 241,447.424717 241,440 C241,432.575283 242.872577,425.676314 246.617788,419.302885 C250.231589,413.126572 255.126572,408.231589 261.302885,404.617788 C267.676314,400.872577 274.575283,399 282,399 Z M278,461 L278,436 L286,436 L286,461 L278,461 Z" id="info_outline---material" fill="#005EB8"></path>
    </g>
</svg>