<?xml version="1.0" encoding="UTF-8"?>
<svg width="320px" height="250px" viewBox="0 0 320 250" version="1.1" xmlns="http://www.w3.org/2000/svg" xmlns:xlink="http://www.w3.org/1999/xlink">
    <!-- Generator: Sketch 48.2 (47327) - http://www.bohemiancoding.com/sketch -->
    <title>learn_more_about_diseases</title>
    <desc>Created with Sketch.</desc>
    <defs></defs>
    <g id="Page-1" stroke="none" stroke-width="1" fill="none" fill-rule="evenodd">
        <g id="learn_more_about_diseases">
            <path d="M316.340448,132.286736 L288.748063,105.085118 C287.138923,103.495533 285.18675,102.485099 283.141021,101.949076 C291.118114,91.0622681 295.490235,78.0436908 295.490235,64.3289 C295.490235,47.6567418 289.128519,31.9580504 277.540216,19.9314234 C277.103628,19.2536934 276.529826,18.6683811 275.86247,18.2124536 C263.619284,6.46307979 247.509174,0 230.382436,0 C212.925138,0 196.515653,6.71568824 184.18515,18.902506 C171.854647,31.0893237 165.037632,47.2747485 165.00021,64.4767683 C164.956551,81.7034328 171.723671,97.8888576 184.054174,110.044869 C196.334781,122.188559 212.681896,128.873441 230.070587,128.873441 L230.076824,128.873441 C243.829358,128.873441 256.914535,124.640709 267.904087,116.896104 C268.446704,118.9601 269.482043,120.919355 271.122367,122.533585 L298.708515,149.735203 C301.147173,152.131903 304.334268,153.333333 307.521363,153.333333 C310.720932,153.333333 313.920501,152.125742 316.352922,149.71672 C321.224001,144.898675 321.211527,137.092458 316.340448,132.286736 Z M267.523632,101.203573 C257.507047,111.098432 244.209813,116.551078 230.076824,116.551078 L230.070587,116.551078 C216.018679,116.551078 202.808762,111.147721 192.873259,101.326797 C182.90657,91.5058732 177.436741,78.4256841 177.467926,64.5014131 C177.505348,50.5833032 183.018835,37.4846305 193.004235,27.6205783 C202.983398,17.7565262 216.255684,12.3223638 230.382436,12.3223638 C244.21605,12.3223638 257.226383,17.5347236 267.130702,27.0044602 C267.255442,27.1523285 267.386418,27.3063581 267.529869,27.4419041 C277.521505,37.2813115 283.016282,50.3799842 283.016282,64.3289 C283.016282,78.2654934 277.515268,91.3580048 267.523632,101.203573 Z" id="Fill-119" fill="#425563"></path>
            <path d="M12.4600208,184.709391 L12.4600208,42.3737816 L154.865598,42.3737816 C156.167671,38.1419483 157.862233,34.0091052 159.899447,30 L6.2300104,30 C2.78481465,30 0,32.7655402 0,36.1868908 L0,190.896282 C0,194.317633 2.78481465,197.083173 6.2300104,197.083173 L49.5285827,197.083173 C49.4974326,202.509076 53.6839996,206.666667 58.8424482,206.666667 L196.531908,206.666667 C201.690357,206.666667 205.876924,202.509076 205.876924,197.38633 C205.876924,197.316212 222.396834,197.21516 255.436656,197.083173 C258.875622,197.083173 261.666667,194.317633 261.666667,190.896282 L261.666667,136.618689 C257.61093,138.381953 253.449283,139.774003 249.206646,140.831962 L249.206646,184.709391 L12.4600208,184.709391 Z" id="Fill-120" fill="#425563"></path>
            <path d="M156.666667,161.666667 C156.666667,163.506667 158.05924,165 159.775088,165 L228.558245,165 C230.280311,165 231.666667,163.506667 231.666667,161.666667 C231.666667,159.826667 230.280311,158.333333 228.558245,158.333333 L159.775088,158.333333 C158.05924,158.333333 156.666667,159.826667 156.666667,161.666667" id="Fill-121" fill="#005EB8"></path>
            <path d="M198.775934,238.333333 L61.2240664,238.333333 C57.7821577,238.333333 55,240.940833 55,244.166667 C55,247.3925 57.7821577,250 61.2240664,250 L198.775934,250 C202.217842,250 205,247.3925 205,244.166667 C205,240.940833 202.217842,238.333333 198.775934,238.333333" id="Fill-122" fill="#425563"></path>
            <path d="M153.427525,219.66744 C156.135531,219.66744 158.333333,217.501933 158.333333,214.83372 C158.333333,212.165507 156.135531,210 153.427525,210 L138.239142,210 C135.531136,210 133.333333,212.165507 133.333333,214.83372 L133.333333,230.16628 C133.333333,232.834493 135.531136,235 138.239142,235 L153.427525,235 C156.135531,235 158.333333,232.834493 158.333333,230.16628 C158.333333,227.498067 156.135531,225.33256 153.427525,225.33256 L143.14495,225.33256 L143.14495,219.66744 L153.427525,219.66744" id="Fill-123" fill="#425563"></path>
            <path d="M159.807765,126.666667 C158.073879,126.666667 156.666667,128.16 156.666667,130 C156.666667,131.846667 158.073879,133.333333 159.807765,133.333333 L190,133.333333 C186.814926,131.353333 183.705239,129.166667 180.746325,126.666667 L159.807765,126.666667" id="Fill-124" fill="#005EB8"></path>
            <path d="M108.240426,225.33256 C105.525168,225.33256 103.333333,227.498067 103.333333,230.16628 C103.333333,232.834493 105.525168,235 108.240426,235 L123.426241,235 C126.134956,235 128.333333,232.834493 128.333333,230.16628 L128.333333,214.83372 C128.333333,212.165507 126.134956,210 123.426241,210 L108.240426,210 C105.525168,210 103.333333,212.165507 103.333333,214.83372 C103.333333,217.501933 105.525168,219.66744 108.240426,219.66744 L118.519149,219.66744 L118.519149,225.33256 L108.240426,225.33256" id="Fill-125" fill="#425563"></path>
            <path d="M100.224912,136.666667 L31.4417551,136.666667 C29.7196894,136.666667 28.3333333,138.153333 28.3333333,140 C28.3333333,141.84 29.7196894,143.333333 31.4417551,143.333333 L100.224912,143.333333 C101.946977,143.333333 103.333333,141.84 103.333333,140 C103.333333,138.153333 101.946977,136.666667 100.224912,136.666667" id="Fill-126" fill="#005EB8"></path>
            <path d="M100.224912,161.666667 L31.4417551,161.666667 C29.7196894,161.666667 28.3333333,163.154821 28.3333333,164.996663 C28.3333333,166.845179 29.7196894,168.333333 31.4417551,168.333333 L100.224912,168.333333 C101.946977,168.333333 103.333333,166.845179 103.333333,164.996663 C103.333333,163.154821 101.946977,161.666667 100.224912,161.666667" id="Fill-127" fill="#005EB8"></path>
            <path d="M74.0752286,56.6666667 L57.5914381,56.6666667 C55.0103907,56.6666667 52.9156276,58.7614298 52.9156276,61.3424771 L52.9156276,76.2489609 L38.0091438,76.2489609 C35.4280964,76.2489609 33.3333333,78.343724 33.3333333,80.9247714 L33.3333333,97.4085619 C33.3333333,99.9896093 35.4280964,102.084372 38.0091438,102.084372 L52.9156276,102.084372 L52.9156276,116.990856 C52.9156276,119.571904 55.0103907,121.666667 57.5914381,121.666667 L74.0752286,121.666667 C76.656276,121.666667 78.7510391,119.571904 78.7510391,116.990856 L78.7510391,102.084372 L93.6575229,102.084372 C96.2385702,102.084372 98.3333333,99.9896093 98.3333333,97.4085619 L98.3333333,80.9247714 C98.3333333,78.343724 96.2385702,76.2489609 93.6575229,76.2489609 L78.7510391,76.2489609 L78.7510391,61.3424771 C78.7510391,58.7614298 76.656276,56.6666667 74.0752286,56.6666667" id="Fill-128" fill="#005EB8"></path>
            <path d="M141.928747,116.666667 L123.071253,116.666667 C121.375921,116.666667 120,118.042926 120,119.738675 L120,138.594659 C120,140.296551 121.375921,141.666667 123.071253,141.666667 L141.928747,141.666667 C143.630221,141.666667 145,140.296551 145,138.594659 L145,119.738675 C145,118.042926 143.630221,116.666667 141.928747,116.666667 Z M126.142506,135.522651 L138.857494,135.522651 L138.857494,122.810682 L126.142506,122.810682 L126.142506,135.522651 Z" id="Fill-129" fill="#005EB8"></path>
            <path d="M141.928747,150 L123.071253,150 C121.375921,150 120,151.369442 120,153.070499 L120,171.929501 C120,173.624417 121.375921,175 123.071253,175 L141.928747,175 C143.630221,175 145,173.624417 145,171.929501 L145,153.070499 C145,151.369442 143.630221,150 141.928747,150 Z M126.142506,168.859003 L138.857494,168.859003 L138.857494,156.140997 L126.142506,156.140997 L126.142506,168.859003 Z" id="Fill-130" fill="#005EB8"></path>
            <path d="M130.461347,106.666667 C130.543564,106.666667 130.619458,106.660176 130.708,106.653685 C131.549149,106.588775 132.333378,106.179844 132.883604,105.511274 L142.591606,93.6782339 C143.717355,92.302148 143.540271,90.2510012 142.205816,89.1020994 C140.865036,87.9402156 138.885489,88.1154718 137.747092,89.4915576 L130.113503,98.8061009 L126.900692,95.9370918 C125.58521,94.755735 123.58669,94.9050274 122.441968,96.2551493 C121.297246,97.6052713 121.436383,99.6564181 122.751865,100.831284 L128.386933,105.868277 C128.962457,106.387555 129.702415,106.666667 130.461347,106.666667" id="Fill-131" fill="#005EB8"></path>
            <path d="M141.928747,53.3333333 L123.071253,53.3333333 C121.375921,53.3333333 120,54.7092547 120,56.4045864 L120,75.2620803 C120,76.9635545 121.375921,78.3333333 123.071253,78.3333333 L141.928747,78.3333333 C143.630221,78.3333333 145,76.9635545 145,75.2620803 L145,56.4045864 C145,54.7092547 143.630221,53.3333333 141.928747,53.3333333 Z M126.142506,72.1908272 L138.857494,72.1908272 L138.857494,59.4758395 L126.142506,59.4758395 L126.142506,72.1908272 Z" id="Fill-132" fill="#005EB8"></path>
        </g>
    </g>
</svg>