<?xml version="1.0" encoding="UTF-8"?>
<svg width="172px" height="200px" viewBox="0 0 172 200" version="1.1" xmlns="http://www.w3.org/2000/svg" xmlns:xlink="http://www.w3.org/1999/xlink">
    <!-- Generator: Sketch 48.2 (47327) - http://www.bohemiancoding.com/sketch -->
    <title>ion-locked - Ionicons</title>
    <desc>Created with Sketch.</desc>
    <defs></defs>
    <g id="Page-1" stroke="none" stroke-width="1" fill="none" fill-rule="evenodd">
        <path d="M9.82142857,200 C7.14284375,200 4.8363192,199.032748 2.90178571,197.098214 C0.967252232,195.163681 0,192.857156 0,190.178571 L0,95.5357143 C0,92.8571295 0.967252232,90.5506049 2.90178571,88.6160714 C4.8363192,86.6815379 7.14284375,85.7142857 9.82142857,85.7142857 L19.6428571,85.7142857 L19.6428571,71.875 C19.6428571,51.339183 26.0416027,34.2262589 38.8392857,20.5357143 C51.6369688,6.84516964 67.2618125,0 85.7142857,0 C104.166759,0 119.791603,6.84516964 132.589286,20.5357143 C145.386969,34.2262589 151.785714,51.339183 151.785714,71.875 L151.785714,85.7142857 L161.607143,85.7142857 C164.285728,85.7142857 166.592252,86.6815379 168.526786,88.6160714 C170.461319,90.5506049 171.428571,92.8571295 171.428571,95.5357143 L171.428571,190.178571 C171.428571,192.857156 170.461319,195.163681 168.526786,197.098214 C166.592252,199.032748 164.285728,200 161.607143,200 L9.82142857,200 Z M85.5,120 C81.9843574,120 79.0221475,121.204415 76.6132812,123.613281 C74.204415,126.022147 73,128.984357 73,132.5 C73,134.843762 73.5859316,136.959626 74.7578125,138.847656 C75.9296934,140.735687 77.4270742,142.200516 79.25,143.242188 L79.25,163.75 C79.25,165.442717 79.8684834,166.907546 81.1054688,168.144531 C82.3424541,169.381517 83.8072832,170 85.5,170 C87.1927168,170 88.6575459,169.381517 89.8945312,168.144531 C91.1315166,166.907546 91.75,165.442717 91.75,163.75 L91.75,143.242188 C93.5729258,142.200516 95.0703066,140.735687 96.2421875,138.847656 C97.4140684,136.959626 98,134.843762 98,132.5 C98,128.984357 96.795585,126.022147 94.3867188,123.613281 C91.9778525,121.204415 89.0156426,120 85.5,120 Z M43.3035714,71.875 L43.3035714,85.7142857 L128.125,85.7142857 L128.125,71.875 C128.125,56.9939732 123.958375,45.0893304 115.625,36.1607143 L115.625,35.7142857 C107.589246,27.0832902 97.6191071,22.7678571 85.7142857,22.7678571 C73.8094643,22.7678571 63.8393259,27.0832902 55.8035714,35.7142857 L55.8035714,36.1607143 C47.4701964,45.0893304 43.3035714,56.9939732 43.3035714,71.875 Z" id="ion-locked---Ionicons" fill="#FFFFFF"></path>
    </g>
</svg>