<?xml version="1.0" encoding="UTF-8"?>
<svg width="200px" height="200px" viewBox="0 0 200 200" version="1.1" xmlns="http://www.w3.org/2000/svg" xmlns:xlink="http://www.w3.org/1999/xlink">
    <!-- Generator: Sketch 48.2 (47327) - http://www.bohemiancoding.com/sketch -->
    <title>sticker</title>
    <desc>Created with Sketch.</desc>
    <defs></defs>
    <g id="Page-1" stroke="none" stroke-width="1" fill="none" fill-rule="evenodd">
        <g id="sticker" fill="#FFFFFF" fill-rule="nonzero">
            <g id="lock-icon-white-2" transform="translate(19.000000, 6.000000)">
                <path d="M9.28125002,189 C6.74998736,189 4.57032166,188.085947 2.7421875,186.257812 C0.914053362,184.429679 0,182.250012 0,179.71875 L0,90.28125 C0,87.7499874 0.914053362,85.5703216 2.7421875,83.7421875 C4.57032166,81.9140533 6.74998736,81 9.28125002,81 L18.5625,81 L18.5625,67.921875 C18.5625,48.5155279 24.6093146,32.3438147 36.7031251,19.40625 C48.7969356,6.46868531 63.562413,0 81.0000002,0 C98.4375875,0 113.203065,6.46868531 125.296876,19.40625 C137.390686,32.3438147 143.4375,48.5155279 143.4375,67.921875 L143.4375,81 L152.718751,81 C155.250013,81 157.429679,81.9140533 159.257813,83.7421875 C161.085947,85.5703216 162,87.7499874 162,90.28125 L162,179.71875 C162,182.250012 161.085947,184.429679 159.257813,186.257812 C157.429679,188.085947 155.250013,189 152.718751,189 L9.28125002,189 Z M80.7975002,113.4 C77.4752179,113.4 74.6759296,114.538172 72.3995509,116.814551 C70.1231724,119.090929 68.9850002,121.890217 68.9850002,125.2125 C68.9850002,127.427355 69.5387055,129.426847 70.646133,131.211035 C71.7535604,132.995224 73.1685853,134.379488 74.8912502,135.363868 L74.8912502,154.74375 C74.8912502,156.343368 75.475717,157.727631 76.6446682,158.896582 C77.8136193,160.065534 79.1978828,160.65 80.7975002,160.65 C82.3971176,160.65 83.7813811,160.065534 84.9503322,158.896582 C86.1192834,157.727631 86.7037502,156.343368 86.7037502,154.74375 L86.7037502,135.363868 C88.4264151,134.379488 89.84144,132.995224 90.9488674,131.211035 C92.0562949,129.426847 92.6100002,127.427355 92.6100002,125.2125 C92.6100002,121.890217 91.4718281,119.090929 89.1954495,116.814551 C86.9190708,114.538172 84.1197825,113.4 80.7975002,113.4 Z M40.9218751,67.921875 L40.9218751,81 L121.078125,81 L121.078125,67.921875 C121.078125,53.8593047 117.140665,42.6094172 109.265625,34.171875 L109.265625,33.75 C101.671838,25.5937092 92.2500564,21.515625 81.0000002,21.515625 C69.7499439,21.515625 60.3281631,25.5937092 52.7343751,33.75 L52.7343751,34.171875 C44.8593357,42.6094172 40.9218751,53.8593047 40.9218751,67.921875 Z" id="ion-locked---Ionicons"></path>
            </g>
        </g>
    </g>
</svg>