<?xml version="1.0" encoding="UTF-8"?>
<svg width="163px" height="200px" viewBox="0 0 163 200" version="1.1" xmlns="http://www.w3.org/2000/svg" xmlns:xlink="http://www.w3.org/1999/xlink">
    <!-- Generator: Sketch 48.2 (47327) - http://www.bohemiancoding.com/sketch -->
    <title>lock - simple-line-icons</title>
    <desc>Created with Sketch.</desc>
    <defs></defs>
    <g id="Page-1" stroke="none" stroke-width="1" fill="none" fill-rule="evenodd">
        <path d="M137.5,75 C144.401076,75 150.292944,77.4413818 155.175781,82.3242188 C160.058618,87.2070557 162.5,93.0989238 162.5,100 L162.5,175 C162.5,181.901076 160.058618,187.792944 155.175781,192.675781 C150.292944,197.558618 144.401076,200 137.5,200 L25,200 C18.0989238,200 12.2070557,197.558618 7.32421875,192.675781 C2.44138184,187.792944 0,181.901076 0,175 L0,100 C0,93.0989238 2.44138184,87.2070557 7.32421875,82.3242188 C12.2070557,77.4413818 18.0989238,75 25,75 L31.25,75 L31.25,51.171875 C31.25,44.1405898 32.454415,37.5000313 34.8632812,31.25 C37.2721475,24.9999687 40.6575303,19.5638252 45.0195312,14.9414062 C49.3815322,10.3189873 54.6223652,6.67319043 60.7421875,4.00390625 C66.8620098,1.33462207 73.6327754,0 81.0546875,0 C88.3463906,0 95.0846045,1.33462207 101.269531,4.00390625 C107.454458,6.67319043 112.760395,10.2864355 117.1875,14.84375 C121.614605,19.4010645 125.065092,24.8046562 127.539062,31.0546875 C130.013033,37.3047188 131.25,44.0103809 131.25,51.171875 L131.25,75 L137.5,75 Z M43.75,51.171875 L43.75,75 L118.75,75 L118.75,51.171875 C118.75,40.3645293 115.266962,31.2174854 108.300781,23.7304688 C101.334601,16.2434521 92.2526602,12.5 81.0546875,12.5 C69.7265059,12.5 60.6771172,16.2760039 53.90625,23.828125 C47.1353828,31.3802461 43.75,40.4947383 43.75,51.171875 Z M150,175 L150,100 C150,96.6145664 148.763033,93.6849082 146.289062,91.2109375 C143.815092,88.7369668 140.885434,87.5 137.5,87.5 L25,87.5 C21.6145664,87.5 18.6849082,88.7369668 16.2109375,91.2109375 C13.7369668,93.6849082 12.5,96.6145664 12.5,100 L12.5,175 C12.5,178.385434 13.7369668,181.315092 16.2109375,183.789062 C18.6849082,186.263033 21.6145664,187.5 25,187.5 L137.5,187.5 C140.885434,187.5 143.815092,186.263033 146.289062,183.789062 C148.763033,181.315092 150,178.385434 150,175 Z M81.25,112.5 C84.7656426,112.5 87.7278525,113.704415 90.1367188,116.113281 C92.545585,118.522147 93.75,121.484357 93.75,125 C93.75,127.343762 93.1640684,129.459626 91.9921875,131.347656 C90.8203066,133.235687 89.3229258,134.700516 87.5,135.742188 L87.5,156.25 C87.5,157.942717 86.8815166,159.407546 85.6445312,160.644531 C84.4075459,161.881517 82.9427168,162.5 81.25,162.5 C79.5572832,162.5 78.0924541,161.881517 76.8554688,160.644531 C75.6184834,159.407546 75,157.942717 75,156.25 L75,135.742188 C73.1770742,134.700516 71.6796934,133.235687 70.5078125,131.347656 C69.3359316,129.459626 68.75,127.343762 68.75,125 C68.75,121.484357 69.954415,118.522147 72.3632812,116.113281 C74.7721475,113.704415 77.7343574,112.5 81.25,112.5 Z" id="lock---simple-line-icons" fill="#FFFFFF"></path>
    </g>
</svg>