<?xml version="1.0" encoding="UTF-8"?>
<svg width="164px" height="200px" viewBox="0 0 164 200" version="1.1" xmlns="http://www.w3.org/2000/svg" xmlns:xlink="http://www.w3.org/1999/xlink">
    <!-- Generator: Sketch 48.2 (47327) - http://www.bohemiancoding.com/sketch -->
    <title>Combined Shape</title>
    <desc>Created with Sketch.</desc>
    <defs></defs>
    <g id="Page-1" stroke="none" stroke-width="1" fill="none" fill-rule="evenodd">
        <path d="M45.4545455,90.9090909 L118.181818,90.9090909 L118.181818,63.6363636 C118.181818,43.6079545 101.846591,27.2727273 81.8181818,27.2727273 C61.7897727,27.2727273 45.4545455,43.6079545 45.4545455,63.6363636 L45.4545455,90.9090909 Z M163.636364,104.545455 L163.636364,186.363636 C163.636364,193.892045 157.528409,200 150,200 L13.6363636,200 C6.10795455,200 0,193.892045 0,186.363636 L0,104.545455 C0,97.0170455 6.10795455,90.9090909 13.6363636,90.9090909 L18.1818182,90.9090909 L18.1818182,63.6363636 C18.1818182,28.6931818 46.875,0 81.8181818,0 C116.761364,0 145.454545,28.6931818 145.454545,63.6363636 L145.454545,90.9090909 L150,90.9090909 C157.528409,90.9090909 163.636364,97.0170455 163.636364,104.545455 Z M81.5,119 C77.9843574,119 75.0221475,120.204415 72.6132812,122.613281 C70.204415,125.022147 69,127.984357 69,131.5 C69,133.843762 69.5859316,135.959626 70.7578125,137.847656 C71.9296934,139.735687 73.4270742,141.200516 75.25,142.242188 L75.25,162.75 C75.25,164.442717 75.8684834,165.907546 77.1054688,167.144531 C78.3424541,168.381517 79.8072832,169 81.5,169 C83.1927168,169 84.6575459,168.381517 85.8945312,167.144531 C87.1315166,165.907546 87.75,164.442717 87.75,162.75 L87.75,142.242188 C89.5729258,141.200516 91.0703066,139.735687 92.2421875,137.847656 C93.4140684,135.959626 94,133.843762 94,131.5 C94,127.984357 92.795585,125.022147 90.3867188,122.613281 C87.9778525,120.204415 85.0156426,119 81.5,119 Z" id="Combined-Shape" fill="#FFFFFF"></path>
    </g>
</svg>