<?xml version="1.0" encoding="UTF-8"?>
<svg width="188px" height="250px" viewBox="0 0 188 250" version="1.1" xmlns="http://www.w3.org/2000/svg" xmlns:xlink="http://www.w3.org/1999/xlink">
    <!-- Generator: Sketch 48.2 (47327) - http://www.bohemiancoding.com/sketch -->
    <title>make_quicker_diagnoses</title>
    <desc>Created with Sketch.</desc>
    <defs></defs>
    <g id="Page-1" stroke="none" stroke-width="1" fill="none" fill-rule="evenodd">
        <g id="make_quicker_diagnoses">
            <path d="M109.74,198.743852 C105.71,194.617828 100.14,192.065574 94,192.065574 C87.85,192.065574 82.29,194.617828 78.26,198.743852 C74.23,202.870902 71.74,208.571721 71.74,214.870902 C71.74,221.169057 74.23,226.869877 78.26,230.996926 C82.29,235.122951 87.85,237.675205 94,237.675205 C100.14,237.675205 105.71,235.122951 109.74,230.996926 C113.76,226.869877 116.26,221.169057 116.26,214.870902 C116.26,208.571721 113.76,202.870902 109.74,198.743852 Z M75.48,124.406762 C81.56,130.081967 87.75,135.684426 94,141.219262 C100.25,135.684426 106.44,130.080943 112.52,124.406762 C106.49,126.262295 100.24,127.190574 94,127.190574 C87.75,127.190574 81.51,126.262295 75.48,124.406762 Z M100,180.306352 C107.05,181.584016 113.36,185.072746 118.22,190.05123 C124.42,196.402664 128.26,205.177254 128.26,214.870902 C128.26,224.5625 124.42,233.33709 118.22,239.689549 C112.02,246.040984 103.46,249.970287 94,249.970287 C84.54,249.970287 75.97,246.040984 69.77,239.689549 C63.57,233.33709 59.74,224.5625 59.74,214.870902 C59.74,205.177254 63.57,196.402664 69.77,190.05123 C74.63,185.072746 80.94,181.584016 88,180.306352 L88,152.109631 C74.35,140.07582 60.93,127.694672 48.28,114.923156 C34.94,101.455943 22.45,87.5491803 11.48,73.1526639 C3.65,62.8893443 0,51.4805328 0,40.8186475 C0,34.505123 1.28,28.4241803 3.75,22.9538934 C6.23,17.4436475 9.92,12.579918 14.71,8.74590164 C21.52,3.29610656 30.45,0 41.16,0 C46.91,0 52.57,1.23463115 57.8,3.55840164 C59.21,4.18442623 60.59,4.88729508 61.92,5.66598361 C63.58,4.8852459 65.42,4.44877049 67.36,4.44877049 C74.54,4.44877049 80.36,10.4129098 80.36,17.7684426 C80.36,25.125 74.54,31.0881148 67.36,31.0881148 C60.18,31.0881148 54.36,25.125 54.36,17.7684426 C54.36,16.9959016 54.42,16.2387295 54.54,15.5020492 C54.06,15.2530738 53.57,15.017418 53.07,14.7961066 C49.39,13.1629098 45.34,12.295082 41.16,12.295082 C33.25,12.295082 26.82,14.5963115 22.07,18.3985656 C18.83,20.9877049 16.33,24.307377 14.62,28.0932377 C12.9,31.9211066 12,36.2520492 12,40.8186475 C12,48.9139344 14.83,57.6536885 20.9,65.6127049 C24.67,70.5553279 28.63,75.4508197 32.76,80.2981557 L54.62,102.444672 C65.5,113.478484 79.75,118.993852 94,118.993852 C108.25,118.993852 122.49,113.478484 133.38,102.444672 L155.23,80.2981557 C159.36,75.4497951 163.33,70.5553279 167.1,65.6127049 C173.16,57.6536885 176,48.9139344 176,40.8186475 C176,36.2520492 175.1,31.9211066 173.37,28.0932377 C171.67,24.307377 169.16,20.9877049 165.93,18.3985656 C161.17,14.5963115 154.74,12.295082 146.83,12.295082 C142.65,12.295082 138.61,13.1629098 134.93,14.7961066 C134.43,15.017418 133.94,15.2530738 133.45,15.5020492 C133.57,16.2387295 133.64,16.9959016 133.64,17.7684426 C133.64,25.125 127.82,31.0881148 120.64,31.0881148 C113.46,31.0881148 107.64,25.125 107.64,17.7684426 C107.64,10.4129098 113.46,4.44877049 120.64,4.44877049 C122.58,4.44877049 124.42,4.8852459 126.07,5.66598361 C127.41,4.88729508 128.78,4.18442623 130.19,3.55840164 C135.43,1.23463115 141.08,0 146.83,0 C157.54,0 166.48,3.29610656 173.29,8.74590164 C178.08,12.579918 181.76,17.4436475 184.25,22.9538934 C186.71,28.4241803 188,34.505123 188,40.8186475 C188,51.4805328 184.34,62.8893443 176.52,73.1526639 C165.54,87.5491803 153.06,101.455943 139.72,114.923156 C127.07,127.694672 113.64,140.07582 100,152.109631 L100,180.306352 Z" id="Fill-36" fill="#425563"></path>
            <path d="M93.57,201.844262 C101.06,201.844262 107.13,208.065574 107.13,215.741803 C107.13,223.417008 101.06,229.63832 93.57,229.63832 C86.08,229.63832 80,223.417008 80,215.741803 C80,208.065574 86.08,201.844262 93.57,201.844262" id="Fill-37" fill="#005EB8"></path>
        </g>
    </g>
</svg>