<?xml version="1.0" encoding="UTF-8"?>
<svg width="200px" height="200px" viewBox="0 0 200 200" version="1.1" xmlns="http://www.w3.org/2000/svg" xmlns:xlink="http://www.w3.org/1999/xlink">
    <!-- Generator: Sketch 48.2 (47327) - http://www.bohemiancoding.com/sketch -->
    <title>phone</title>
    <desc>Created with Sketch.</desc>
    <defs></defs>
    <g id="Page-1" stroke="none" stroke-width="1" fill="none" fill-rule="evenodd">
        <g id="phone" fill="#FFFFFF">
            <path d="M118.124632,29.0374039 C119.731089,29.0374039 121.313711,29.1421633 122.891566,29.2469227 L122.891566,20.1566629 C122.891566,9.0664508 113.901128,0.0476179139 102.856141,0.0476179139 L20.0354249,0 C8.98567116,0 0,8.99978572 0,20.0614271 L0,179.895717 C0,190.981167 8.98567116,200 20.0354249,200 L102.856141,199.957144 C113.901128,199.957144 122.891566,190.957358 122.891566,179.895717 L122.891566,141.353777 L113.357698,145.439394 L113.357698,179.024309 L9.5338686,179.024309 L9.5338686,20.9328349 L113.357698,20.9328349 L113.357698,29.2469227 C114.935553,29.1421633 116.513408,29.0374039 118.124632,29.0374039" id="Fill-51"></path>
            <path d="M138.445783,34 C172.326067,34 199.891566,54.1817217 199.891566,78.9877254 C199.891566,98.9212917 182.494032,116.163325 156.552968,121.994979 L115.310057,137.223136 C114.600406,137.485608 113.85749,137.614458 113.125663,137.614458 C111.501228,137.614458 109.915602,136.998841 108.840037,135.867825 C107.271044,134.230953 107.154616,131.897337 108.546197,130.145932 L115.919913,120.868735 C92.6511275,114.201943 77,97.7473253 77,78.9877254 C77,54.1817217 104.5655,34 138.445783,34 Z M92.2910728,86.0481928 L95.4508627,82.4055324 L98.5716429,86.0481928 L100.951238,84.247327 L98.6496624,79.9907351 L102.862716,77.9852254 L101.926482,75.0383541 L97.4403601,76.0615733 L96.9332333,71.1910499 L93.9294824,71.1910499 L93.4223556,76.0206446 L88.8972243,75.0383541 L88,77.9852254 L92.2130533,79.9907351 L89.9114779,84.247327 L92.2910728,86.0481928 Z M110.11853,86.0481928 L113.27832,82.4055324 L116.3991,86.0481928 L118.778695,84.247327 L116.477119,79.9907351 L120.690173,77.9852254 L119.753938,75.0383541 L115.267817,76.0615733 L114.76069,71.1910499 L111.756939,71.1910499 L111.249812,76.0206446 L106.724681,75.0383541 L105.827457,77.9852254 L110.04051,79.9907351 L107.738935,84.247327 L110.11853,86.0481928 Z M127.945986,86.0481928 L131.105776,82.4055324 L134.226557,86.0481928 L136.606152,84.247327 L134.304576,79.9907351 L138.517629,77.9852254 L137.581395,75.0383541 L133.095274,76.0615733 L132.588147,71.1910499 L129.584396,71.1910499 L129.077269,76.0206446 L124.552138,75.0383541 L123.654914,77.9852254 L127.867967,79.9907351 L125.566392,84.247327 L127.945986,86.0481928 Z M145.773443,86.0481928 L148.933233,82.4055324 L152.054014,86.0481928 L154.433608,84.247327 L152.132033,79.9907351 L156.345086,77.9852254 L155.408852,75.0383541 L150.922731,76.0615733 L150.415604,71.1910499 L147.411853,71.1910499 L146.904726,76.0206446 L142.379595,75.0383541 L141.482371,77.9852254 L145.695424,79.9907351 L143.393848,84.247327 L145.773443,86.0481928 Z M163.6009,86.0481928 L166.76069,82.4055324 L169.88147,86.0481928 L172.261065,84.247327 L169.95949,79.9907351 L174.172543,77.9852254 L173.236309,75.0383541 L168.750188,76.0615733 L168.243061,71.1910499 L165.23931,71.1910499 L164.732183,76.0206446 L160.207052,75.0383541 L159.309827,77.9852254 L163.522881,79.9907351 L161.221305,84.247327 L163.6009,86.0481928 Z M181.428357,86.0481928 L184.588147,82.4055324 L187.708927,86.0481928 L190.088522,84.247327 L187.786947,79.9907351 L192,77.9852254 L191.063766,75.0383541 L186.577644,76.0615733 L186.070518,71.1910499 L183.066767,71.1910499 L182.55964,76.0206446 L178.034509,75.0383541 L177.137284,77.9852254 L181.350338,79.9907351 L179.048762,84.247327 L181.428357,86.0481928 Z" id="Combined-Shape"></path>
        </g>
    </g>
</svg>