<?xml version="1.0" encoding="UTF-8"?>
<svg width="249px" height="250px" viewBox="0 0 249 250" version="1.1" xmlns="http://www.w3.org/2000/svg" xmlns:xlink="http://www.w3.org/1999/xlink">
    <!-- Generator: Sketch 48.2 (47327) - http://www.bohemiancoding.com/sketch -->
    <title>plan_nhs_services</title>
    <desc>Created with Sketch.</desc>
    <defs></defs>
    <g id="Page-1" stroke="none" stroke-width="1" fill="none" fill-rule="evenodd">
        <g id="plan_nhs_services">
            <path d="M248.447205,123.615568 L248.447205,111.991555 L167.302713,111.991555 L167.302713,59.8055476 L155.675745,59.8055476 L155.675745,11.6240131 L162.108675,11.6240131 L162.108675,0 L86.33853,0 L86.33853,11.6240131 L92.7714601,11.6240131 L92.7714601,59.8055476 L81.1444915,59.8055476 L81.1444915,111.991555 L0,111.991555 L0,123.615568 L5.67679906,123.615568 L5.67679906,213.132093 L0,213.132093 L0,218.944099 L247.71434,218.944099 L247.71434,213.132093 L242.770406,213.132093 L242.770406,123.615568 L248.447205,123.615568 Z M11.4931915,213.132093 L81.1503079,213.132093 L81.1503079,123.615568 L11.4931915,123.615568 L11.4931915,213.132093 Z M98.5878526,59.8055476 L149.853536,59.8055476 L149.853536,11.6240131 L98.5878526,11.6240131 L98.5878526,59.8055476 Z M86.960884,213.126281 L161.480505,213.126281 L161.480505,65.6175541 L86.960884,65.6175541 L86.960884,213.126281 Z M167.302713,213.132093 L236.95983,213.132093 L236.95983,123.615568 L167.302713,123.615568 L167.302713,213.132093 Z" id="Fill-95" fill="#425563"></path>
            <path d="M135.181899,30.4583442 L131.036735,30.4583442 L131.036735,26.308095 C131.036735,24.6431694 129.685182,23.2919255 128.019876,23.2919255 L121.986158,23.2919255 C120.314818,23.2919255 118.969299,24.6431694 118.969299,26.308095 L118.969299,30.4583442 L114.818101,30.4583442 C113.152795,30.4583442 111.801242,31.8095882 111.801242,33.4745137 L111.801242,39.5068527 C111.801242,41.1778106 113.152795,42.5230222 114.818101,42.5230222 L118.969299,42.5230222 L118.969299,46.6732715 C118.969299,48.3442294 120.314818,49.689441 121.986158,49.689441 L128.019876,49.689441 C129.685182,49.689441 131.036735,48.3442294 131.036735,46.6732715 L131.036735,42.5230222 L135.181899,42.5230222 C136.847205,42.5230222 138.198758,41.1778106 138.198758,39.5068527 L138.198758,33.4745137 C138.198758,31.8095882 136.847205,30.4583442 135.181899,30.4583442" id="Fill-96" fill="#005EB8"></path>
            <polygon id="Fill-97" fill="#005EB8" points="60.5590062 201.863354 68.3229814 201.863354 68.3229814 184.782609 60.5590062 184.782609"></polygon>
            <polygon id="Fill-98" fill="#005EB8" points="41.9254658 201.863354 49.689441 201.863354 49.689441 184.782609 41.9254658 184.782609"></polygon>
            <polygon id="Fill-99" fill="#005EB8" points="24.8447205 201.863354 32.6086957 201.863354 32.6086957 184.782609 24.8447205 184.782609"></polygon>
            <polygon id="Fill-100" fill="#005EB8" points="215.838509 201.863354 223.602484 201.863354 223.602484 184.782609 215.838509 184.782609"></polygon>
            <polygon id="Fill-101" fill="#005EB8" points="197.204969 201.863354 204.968944 201.863354 204.968944 184.782609 197.204969 184.782609"></polygon>
            <polygon id="Fill-102" fill="#005EB8" points="180.124224 201.863354 187.888199 201.863354 187.888199 184.782609 180.124224 184.782609"></polygon>
            <polygon id="Fill-103" fill="#005EB8" points="60.5590062 170.807453 68.3229814 170.807453 68.3229814 145.962733 60.5590062 145.962733"></polygon>
            <polygon id="Fill-104" fill="#005EB8" points="41.9254658 170.807453 49.689441 170.807453 49.689441 145.962733 41.9254658 145.962733"></polygon>
            <polygon id="Fill-105" fill="#005EB8" points="24.8447205 170.807453 32.6086957 170.807453 32.6086957 145.962733 24.8447205 145.962733"></polygon>
            <polygon id="Fill-106" fill="#005EB8" points="215.838509 170.807453 223.602484 170.807453 223.602484 145.962733 215.838509 145.962733"></polygon>
            <polygon id="Fill-107" fill="#005EB8" points="197.204969 170.807453 204.968944 170.807453 204.968944 145.962733 197.204969 145.962733"></polygon>
            <polygon id="Fill-108" fill="#005EB8" points="180.124224 170.807453 187.888199 170.807453 187.888199 145.962733 180.124224 145.962733"></polygon>
            <polygon id="Fill-109" fill="#005EB8" points="138.198758 201.863354 145.962733 201.863354 145.962733 184.782609 138.198758 184.782609"></polygon>
            <polygon id="Fill-110" fill="#005EB8" points="119.565217 209.627329 127.329193 209.627329 127.329193 184.782609 119.565217 184.782609"></polygon>
            <polygon id="Fill-111" fill="#005EB8" points="100.931677 201.863354 108.695652 201.863354 108.695652 184.782609 100.931677 184.782609"></polygon>
            <polygon id="Fill-112" fill="#005EB8" points="138.198758 130.434783 145.962733 130.434783 145.962733 105.590062 138.198758 105.590062"></polygon>
            <polygon id="Fill-113" fill="#005EB8" points="119.565217 130.434783 127.329193 130.434783 127.329193 105.590062 119.565217 105.590062"></polygon>
            <polygon id="Fill-114" fill="#005EB8" points="100.931677 130.434783 108.695652 130.434783 108.695652 105.590062 100.931677 105.590062"></polygon>
            <polygon id="Fill-115" fill="#005EB8" points="138.198758 170.807453 145.962733 170.807453 145.962733 145.962733 138.198758 145.962733"></polygon>
            <polygon id="Fill-116" fill="#005EB8" points="119.565217 170.807453 127.329193 170.807453 127.329193 145.962733 119.565217 145.962733"></polygon>
            <polygon id="Fill-117" fill="#005EB8" points="100.931677 170.807453 108.695652 170.807453 108.695652 145.962733 100.931677 145.962733"></polygon>
            <path d="M166.357698,224.525961 C165.807456,223.935165 165.031324,223.602484 164.226232,223.602484 L84.2209726,223.602484 C83.415881,223.602484 82.6397495,223.935165 82.089507,224.525961 L62.8773556,245.1866 C61.7942467,246.350983 61.869543,248.169257 63.0453244,249.241867 C64.2326898,250.314476 66.0571781,250.23991 67.140287,249.075526 L85.4952184,229.338364 L162.951987,229.338364 L181.306918,249.075526 C181.880329,249.689265 182.65646,249.999003 183.438384,249.999003 C184.139219,249.999003 184.840054,249.746624 185.401881,249.241867 C186.577662,248.169257 186.652958,246.350983 185.569849,245.1866 L166.357698,224.525961" id="Fill-118" fill="#425563"></path>
        </g>
    </g>
</svg>