<?xml version="1.0" encoding="UTF-8"?>
<svg width="292px" height="250px" viewBox="0 0 292 250" version="1.1" xmlns="http://www.w3.org/2000/svg" xmlns:xlink="http://www.w3.org/1999/xlink">
    <!-- Generator: Sketch 48.2 (47327) - http://www.bohemiancoding.com/sketch -->
    <title>prevent_serious_illness</title>
    <desc>Created with Sketch.</desc>
    <defs></defs>
    <g id="Page-1" stroke="none" stroke-width="1" fill="none" fill-rule="evenodd">
        <g id="prevent_serious_illness">
            <path d="M214.120769,0 C192.160212,0 172.479652,9.34590052 159.29878,25.5507608 C146.123581,9.34590052 126.437349,0 104.476792,0 C66.1932811,0 27.4390244,28.84397 27.4390244,83.9825119 C27.4390244,89.955712 28.0515606,95.8437429 29.1348421,101.640927 L46.4786907,101.640927 C45.1798871,95.8210311 44.4539183,89.9330002 44.4539183,83.9825119 C44.4539183,40.0295253 74.655355,17.0338406 104.476792,17.0338406 C124.752874,17.0338406 142.442692,27.4415171 151.806556,44.8784919 C153.292523,47.6322962 156.173712,49.358392 159.29878,49.358392 C162.429521,49.358392 165.31071,47.6322962 166.796677,44.8784919 C176.16054,27.4415171 193.850358,17.0338406 214.120769,17.0338406 C243.947878,17.0338406 274.143643,40.0295253 274.143643,83.9825119 C274.143643,144.66273 201.257509,199.341358 162.106238,228.719055 L159.29878,230.825573 L156.496995,228.719055 C128.915852,208.022939 84.6260828,174.767204 60.8335895,135.708608 L41.3231778,135.708608 C65.4843272,181.688621 115.627219,219.339087 146.29373,242.346128 L154.160283,248.268226 C155.68028,249.420849 157.48953,250 159.29878,250 C161.113703,250 162.922953,249.420849 164.44295,248.268226 L172.303831,242.346128 C213.842859,211.185555 291.158537,153.185328 291.158537,83.9825119 C291.158537,28.84397 252.40428,0 214.120769,0" id="Fill-65" fill="#4D4D4D"></path>
            <path d="M226.835613,99.7665112 C218.584871,99.7665112 211.655159,105.193674 209.229475,112.630476 C209.223781,112.630476 209.218087,112.624799 209.212393,112.624799 L188.468809,112.624799 L178.504145,88.4693842 C177.56462,86.2042818 175.349617,84.8191065 172.810052,84.9723841 C170.350203,85.1540464 168.294635,86.8968695 167.702449,89.2811878 L149.709113,162.44002 L134.226872,52.1596233 C133.845368,49.451719 131.584813,47.4023407 128.845954,47.2717709 C125.970436,47.0617238 123.670022,48.9862093 123.043672,51.643021 L102.2887,139.499472 L89.2606138,104.671394 C88.6171812,102.934248 87.1594932,101.62855 85.3601596,101.16304 C83.5722141,100.703208 81.6533045,101.134656 80.2411693,102.332492 L68.0899732,112.624799 L5.69409376,112.624799 C2.54525991,112.624799 0,115.162395 0,118.301747 C0,121.441099 2.54525991,123.978695 5.69409376,123.978695 L70.1797056,123.978695 C71.5348999,123.978695 72.8388474,123.501832 73.8694784,122.627582 L81.4312349,116.223984 L98.1889528,161.026459 C99.0658432,163.371039 101.400422,164.8584 103.877352,164.710799 C106.388448,164.557521 108.489568,162.780636 109.070366,160.345226 L127.160502,83.7404863 L142.540249,193.282879 C142.921753,195.97943 145.165226,198.028808 147.892697,198.165055 C147.989497,198.170732 148.086296,198.170732 148.183096,198.170732 C150.790991,198.170732 153.085711,196.399524 153.712061,193.850574 L174.609385,108.88369 L179.38673,120.464664 C180.26362,122.587843 182.347659,123.978695 184.653767,123.978695 L209.212393,123.978695 C209.218087,123.978695 209.223781,123.978695 209.229475,123.978695 C211.649465,131.415498 218.584871,136.84266 226.835613,136.84266 C237.084982,136.84266 245.426829,128.525931 245.426829,118.301747 C245.426829,108.08324 237.084982,99.7665112 226.835613,99.7665112 Z M226.835613,125.488764 C222.86683,125.488764 219.638279,122.264257 219.638279,118.301747 C219.638279,114.344914 222.86683,111.120408 226.835613,111.120408 C230.804396,111.120408 234.038642,114.344914 234.038642,118.301747 C234.038642,122.264257 230.804396,125.488764 226.835613,125.488764 Z" id="Fill-66" fill="#005EB8"></path>
        </g>
    </g>
</svg>