<?xml version="1.0" encoding="UTF-8"?>
<svg width="200px" height="257px" viewBox="0 0 200 257" version="1.1" xmlns="http://www.w3.org/2000/svg" xmlns:xlink="http://www.w3.org/1999/xlink">
    <!-- Generator: Sketch 48.2 (47327) - http://www.bohemiancoding.com/sketch -->
    <title>reduce_length_of _stay</title>
    <desc>Created with Sketch.</desc>
    <defs></defs>
    <g id="Page-1" stroke="none" stroke-width="1" fill="none" fill-rule="evenodd">
        <g id="reduce_length_of-_stay">
            <path d="M69.45,18.55 C62.94,12.03 53.94,8 44,8 C34.06,8 25.06,12.03 18.54,18.55 C12.03,25.06 8,34.06 8,44 C8,53.94 12.03,62.94 18.54,69.46 C25.06,75.97 34.06,80 44,80 C53.94,80 62.94,75.97 69.45,69.46 C75.97,62.94 80,53.94 80,44 C80,34.06 75.97,25.06 69.45,18.55 Z M44,0 C56.15,0 67.15,4.93 75.11,12.89 C83.07,20.85 88,31.85 88,44 C88,56.15 83.07,67.15 75.11,75.11 C67.15,83.08 56.15,88 44,88 C31.85,88 20.85,83.08 12.89,75.11 C4.92,67.15 0,56.15 0,44 C0,31.85 4.92,20.85 12.89,12.89 C20.85,4.93 31.85,0 44,0 Z M188.12,82.95 C188.7,79.7 191.81,77.54 195.05,78.12 C198.3,78.7 200.46,81.81 199.88,85.06 L184.37,171.57 C183.04,179.02 179.2,185.4 173.8,189.91 C168.39,194.44 161.43,197.1 153.88,197.1 L108.92,197.1 L160.15,245.64 C162.53,247.93 162.6,251.72 160.31,254.1 C158.02,256.48 154.23,256.56 151.85,254.27 L90.18,195.73 C88.85,194.63 88,192.96 88,191.1 C88,187.79 90.69,185.1 94,185.1 L153.88,185.1 C158.55,185.1 162.82,183.48 166.11,180.72 C169.43,177.95 171.79,174.03 172.61,169.46 L188.12,82.95 Z M48,44 L48,44.14 L47.99,44.2 L47.99,44.31 L47.98,44.33 L47.98,44.41 L47.97,44.47 L47.97,44.51 L47.96,44.53 L47.95,44.61 L47.93,44.71 L47.93,44.72 L47.92,44.79 L47.92,44.81 L47.9,44.89 L47.9,44.91 L47.89,44.91 L47.88,44.98 L47.87,45 L47.86,45.04 L47.86,45.06 L47.84,45.1 L47.83,45.16 L47.82,45.19 L47.81,45.22 L47.79,45.28 L47.79,45.29 L47.77,45.34 L47.75,45.4 L47.72,45.46 L47.72,45.47 L47.7,45.52 L47.68,45.56 L47.67,45.58 L47.65,45.64 L47.64,45.65 L47.62,45.69 L47.6,45.74 L47.6,45.75 L47.57,45.81 L47.56,45.82 L47.54,45.86 L47.54,45.87 L47.51,45.92 L47.48,45.97 L47.45,46.02 L47.44,46.04 L47.42,46.08 L47.38,46.13 L47.38,46.14 L47.35,46.19 L47.32,46.24 L47.31,46.24 L47.28,46.29 C47.21,46.39 47.13,46.49 47.06,46.58 L47.05,46.59 L47.01,46.63 L46.97,46.68 L46.93,46.72 L46.92,46.73 L46.88,46.77 L46.84,46.82 L46.75,46.9 L46.71,46.95 L46.67,46.98 L46.66,46.99 L46.62,47.03 L46.61,47.03 L46.57,47.07 C46.47,47.15 46.37,47.23 46.27,47.3 L46.23,47.32 L46.22,47.33 L46.16,47.37 L46.11,47.4 L32.66,60.85 C31.09,62.42 28.56,62.42 27,60.85 C25.44,59.29 25.44,56.76 27,55.2 L40,42.2 L40,16 C40,13.79 41.79,12 44,12 C46.21,12 48,13.79 48,16 L48,44 Z" id="Fill-16" fill="#005EB8"></path>
            <path d="M80.8549382,245.04 C80.8549382,251.12 75.9349382,256.05 69.8549382,256.05 C63.7749382,256.05 58.8549382,251.12 58.8549382,245.04 L58.8549382,190.79 L41.9549382,228.86 C39.5149382,234.39 33.0449382,236.89 27.5249382,234.44 C21.9949382,232 19.4949382,225.54 21.9349382,220.01 L50.5849382,155.45 C52.6249382,150.85 55.9449382,147.21 60.0049382,144.84 C64.0649382,142.48 68.8449382,141.39 73.8249382,141.89 L82.8649382,142.78 C83.0149382,137.42 87.0749382,132.83 92.5649382,132.18 L124.814938,128.31 C129.994938,107.83 139.374938,86.15 164.664938,84.13 C165.764938,83.98 166.904938,83.99 168.064938,84.19 C174.044938,85.24 178.044938,90.93 176.994938,96.91 L164.674938,167.55 C163.964938,172.93 159.344938,177.09 153.764938,177.09 L92.8549382,177.09 C89.5549382,177.09 86.5549382,178.44 84.3849382,180.62 C82.2049382,182.8 80.8549382,185.79 80.8549382,189.09 L80.8549382,245.04 Z M167.264938,27 C154.004938,27 143.264938,37.74 143.264938,51 C143.264938,64.25 154.004938,75 167.264938,75 C180.514938,75 191.264938,64.25 191.264938,51 C191.264938,37.74 180.514938,27 167.264938,27 Z" id="Fill-17" fill="#425563"></path>
        </g>
    </g>
</svg>