<?xml version="1.0" encoding="UTF-8"?>
<svg width="235px" height="210px" viewBox="0 0 235 210" version="1.1" xmlns="http://www.w3.org/2000/svg" xmlns:xlink="http://www.w3.org/1999/xlink">
    <!-- Generator: Sketch 48.2 (47327) - http://www.bohemiancoding.com/sketch -->
    <title>Group 6</title>
    <desc>Created with Sketch.</desc>
    <defs></defs>
    <g id="Artboard" stroke="none" stroke-width="1" fill="none" fill-rule="evenodd" transform="translate(-947.000000, -476.000000)">
        <g id="Group-6" transform="translate(947.000000, 476.000000)">
            <g id="evaluate_nhs_policy" transform="translate(107.889908, 0.000000)">
                <path d="M110.578492,16.0364851 L107.708071,16.0364851 C108.134149,17.2238807 108.403251,18.4824452 108.403251,19.8121784 L108.403251,23.52794 L110.578492,23.52794 C115.119588,23.52794 118.812265,27.2624303 118.812265,31.8509464 L118.812265,157.580034 C118.812265,162.146076 115.119588,165.869329 110.578492,165.869329 L15.7088285,165.903041 C11.1677325,165.903041 7.47505522,162.16855 7.47505522,157.580034 L7.47505522,31.8509464 C7.47505522,27.2849047 11.1677325,23.5616516 15.7125661,23.5616516 L17.8840696,23.5616516 L17.8840696,19.8121784 C17.8840696,18.4936823 18.1531716,17.2463551 18.5680372,16.0701967 L15.7088285,16.0701967 C7.04897707,16.0701967 0,23.1496216 0,31.8509464 L0,157.580034 C0,166.300088 7.04897707,173.394495 15.7088285,173.394495 L15.7125661,173.394495 L110.578492,173.360784 C119.238343,173.360784 126.28732,166.281359 126.28732,157.580034 L126.28732,31.8509464 C126.28732,23.1308929 119.238343,16.0364851 110.578492,16.0364851" id="Fill-67" fill="#768692"></path>
                <path d="M97.4629003,16.0191992 L79.3491831,16.0191992 C79.3491831,16.0117623 79.3491831,16.0043253 79.3491831,15.9968884 C79.3491831,7.17666075 72.0818453,0 63.1455439,0 C54.2054751,0 46.9381372,7.17666075 46.9381372,15.9968884 C46.9381372,16.0043253 46.9381372,16.0117623 46.9381372,16.0191992 L28.8244201,16.0191992 C26.7410412,16.0191992 25.057008,17.685077 25.057008,19.7376763 L25.057008,33.3658948 C25.057008,35.4184941 26.7410412,37.0843719 28.8244201,37.0843719 L97.4629003,37.0843719 C99.5462792,37.0843719 101.230312,35.4184941 101.230312,33.3658948 L101.230312,19.7376763 C101.230312,17.685077 99.5462792,16.0191992 97.4629003,16.0191992 Z M63.1455439,24.5531041 C58.364698,24.5531041 54.4729613,20.7156358 54.4729613,15.9968884 C54.4729613,11.2744225 58.364698,7.43695415 63.1455439,7.43695415 C67.9263898,7.43695415 71.814359,11.2744225 71.814359,15.9968884 C71.814359,20.7156358 67.9263898,24.5531041 63.1455439,24.5531041 Z" id="Fill-68" fill="#425563"></path>
                <path d="M103.356606,99.2257517 L51.9968433,99.2257517 C50.953757,99.2257517 50.114016,100.122898 50.114016,101.22831 C50.114016,102.337727 50.953757,103.234873 51.9968433,103.234873 L103.356606,103.234873 C104.395927,103.234873 105.239434,102.337727 105.239434,101.22831 C105.239434,100.122898 104.395927,99.2257517 103.356606,99.2257517" id="Fill-69" fill="#768692"></path>
                <path d="M103.356606,74.1687437 L51.9968433,74.1687437 C50.953757,74.1687437 50.114016,75.0627777 50.114016,76.1733043 C50.114016,77.2798218 50.953757,78.177865 51.9968433,78.177865 L103.356606,78.177865 C104.395927,78.177865 105.239434,77.2798218 105.239434,76.1733043 C105.239434,75.0627777 104.395927,74.1687437 103.356606,74.1687437" id="Fill-70" fill="#768692"></path>
                <path d="M51.9968433,148.337487 C50.953757,148.337487 50.114016,149.235531 50.114016,150.342048 C50.114016,151.448566 50.953757,152.346609 51.9968433,152.346609 L103.356606,152.346609 C104.395927,152.346609 105.239434,151.448566 105.239434,150.342048 C105.239434,149.235531 104.395927,148.337487 103.356606,148.337487 L51.9968433,148.337487 Z" id="Fill-71" fill="#768692"></path>
                <path d="M103.356606,124.28276 L51.9968433,124.28276 C50.953757,124.28276 50.114016,125.180803 50.114016,126.28732 C50.114016,127.397847 50.953757,128.291881 51.9968433,128.291881 L103.356606,128.291881 C104.395927,128.291881 105.239434,127.397847 105.239434,126.28732 C105.239434,125.180803 104.395927,124.28276 103.356606,124.28276" id="Fill-72" fill="#768692"></path>
                <path d="M38.2559081,91.2075091 L23.8854718,91.2075091 C22.8723836,91.2075091 22.050167,92.0297257 22.050167,93.0428139 L22.050167,107.41325 C22.050167,108.426338 22.8723836,109.248555 23.8854718,109.248555 L38.2559081,109.248555 C39.2726669,109.248555 40.0912128,108.426338 40.0912128,107.41325 L40.0912128,93.0428139 C40.0912128,92.0297257 39.2726669,91.2075091 38.2559081,91.2075091 Z M25.7207766,105.577945 L36.4206033,105.577945 L36.4206033,94.8817893 L25.7207766,94.8817893 L25.7207766,105.577945 Z" id="Fill-73" fill="#768692"></path>
                <path d="M50.114016,52.1185767 C50.114016,53.2291033 50.953757,54.1231373 51.9968433,54.1231373 L103.356606,54.1231373 C104.395927,54.1231373 105.239434,53.2291033 105.239434,52.1185767 C105.239434,51.0120592 104.395927,50.114016 103.356606,50.114016 L51.9968433,50.114016 C50.953757,50.114016 50.114016,51.0120592 50.114016,52.1185767" id="Fill-74" fill="#768692"></path>
                <path d="M35.6306105,70.8563294 L29.2444162,78.4434175 L26.2981474,75.8804239 C25.4871399,75.1671749 24.2451623,75.2573108 23.5360204,76.0724525 C22.8229607,76.8875942 22.9091547,78.1259825 23.7240801,78.8353126 L28.1748266,82.7072357 C28.5313564,83.0207517 28.989752,83.1892666 29.4599013,83.1892666 C29.5108341,83.1892666 29.5617669,83.1853476 29.6087819,83.1814287 C30.1337819,83.1422392 30.6196028,82.8953453 30.9565431,82.4916934 L38.6278121,73.3840524 C39.3252002,72.5571539 39.2194166,71.3226845 38.3927374,70.6211923 C37.5621404,69.9197002 36.3240806,70.0333498 35.6306105,70.8563294" id="Fill-75" fill="#768692"></path>
                <path d="M38.2559081,43.0980538 L23.8854718,43.0980538 C22.8723836,43.0980538 22.050167,43.9204376 22.050167,44.933732 L22.050167,59.3034213 C22.050167,60.320387 22.8723836,61.1390995 23.8854718,61.1390995 L38.2559081,61.1390995 C39.2726669,61.1390995 40.0912128,60.320387 40.0912128,59.3034213 L40.0912128,44.933732 C40.0912128,43.9204376 39.2726669,43.0980538 38.2559081,43.0980538 Z M25.7207766,57.4677431 L36.4206033,57.4677431 L36.4206033,46.7694103 L25.7207766,46.7694103 L25.7207766,57.4677431 Z" id="Fill-76" fill="#768692"></path>
                <path d="M38.2559081,116.264517 L23.8854718,116.264517 C22.8723836,116.264517 22.050167,117.086734 22.050167,118.099822 L22.050167,132.470258 C22.050167,133.487017 22.8723836,134.305563 23.8854718,134.305563 L38.2559081,134.305563 C39.2726669,134.305563 40.0912128,133.487017 40.0912128,132.470258 L40.0912128,118.099822 C40.0912128,117.086734 39.2726669,116.264517 38.2559081,116.264517 Z M25.7207766,130.634953 L36.4206033,130.634953 L36.4206033,119.935127 L25.7207766,119.935127 L25.7207766,130.634953 Z" id="Fill-77" fill="#768692"></path>
                <path d="M38.2559081,141.321525 L23.8854718,141.321525 C22.8723836,141.321525 22.050167,142.143742 22.050167,143.15683 L22.050167,157.527266 C22.050167,158.540354 22.8723836,159.362571 23.8854718,159.362571 L38.2559081,159.362571 C39.2726669,159.362571 40.0912128,158.540354 40.0912128,157.527266 L40.0912128,143.15683 C40.0912128,142.143742 39.2726669,141.321525 38.2559081,141.321525 Z M25.7207766,155.691961 L36.4206033,155.691961 L36.4206033,144.992135 L25.7207766,144.992135 L25.7207766,155.691961 Z" id="Fill-78" fill="#768692"></path>
            </g>
            <g id="Group-5" transform="translate(0.000000, 50.000000)">
                <g id="Group-4">
                    <path d="M133.098258,129.194043 C135.227841,132.270107 136.292616,136.055975 136.292616,140.551761 C136.292616,152.856017 128.839189,159.008053 113.932109,159.008053 L22.3605074,159.008053 C7.45342793,159.008053 0,152.856017 0,140.551761 C0,136.292595 1.06477542,132.506727 3.1943582,129.194043 L20.5858639,103.284248 L37.9773697,75.9547394 C42.9463962,68.3828895 45.4308722,60.1013029 45.4308722,51.1097312 L45.4308722,18.4562918 C45.4308722,15.8534684 44.4844051,12.7182964 42.5914427,9.05068156 C40.6984802,5.38306677 39.7520131,3.43097851 39.7520131,3.1943582 C39.5153928,1.77463635 39.7520096,0.887323497 40.4618705,0.532393033 C41.1717314,0.17746257 42.9463571,0 45.7858008,0 L90.5068156,0 C93.3462593,0 95.0617308,0.17746257 95.6532816,0.532393033 C96.2448324,0.887323497 96.422295,1.77463635 96.1856747,3.1943582 C96.1856747,3.43097851 95.2983618,5.26475839 93.5237095,8.69575287 C91.7490572,12.1267474 90.8617443,15.2619194 90.8617443,18.1013631 L90.8617443,51.1097312 C90.8617443,60.8111638 93.1096035,69.0927504 97.6053894,75.9547394 L133.098258,129.194043 Z" id="ion-erlenmeyer-flask---Ionicons" fill="#768692"></path>
                    <path d="M115.2625,152 C119.370854,152 122.5,152 126.5,149.5 C129.5,147 130.5,145 130.5,142 C130.5,139 129.949951,138.395833 128.5,136 C116.934501,117.913108 104.914481,100.072831 92.4399414,82.4791667 C86.8815803,73.7430119 84.0999756,63.4722812 84.0999756,51.6666667 L84.0999756,8 L52.9000244,8 L52.9000244,51.6666667 C52.9000244,63.0000567 49.8816627,73.2707873 43.8399658,82.4791667 L8.5,136 C7.5333285,137.888898 7,139 7,142 C7.5,147 9.31994629,147.97998 11.5,149.5 C13.6800537,151.02002 16.5,152 21.7375,152 L115.2625,152 Z" id="Path" fill="#FFFFFF"></path>
                    <g id="Group-3" transform="translate(14.000000, 88.000000)">
                        <path d="M107.797794,49.7054795 C109,51.5 109,52.3995407 109,52.9383562 C109,54.5548026 108.465692,55.969172 107.397059,57.1815068 C106.328426,58.3938417 104.992655,59 103.389706,59 L5.61029412,59 C4.27450313,59 3.00552072,58.2591378 1.80330882,57.1815068 C0.60109693,56.1038759 0,54.5548026 0,52.9383562 C0,51.5913175 0.198525404,50.3082232 1,49.5 L33.6617647,0 L74.9375,0 L107.797794,49.7054795 Z" id="Path" fill="#005EB8"></path>
                        <path d="M72.75,21.25 C73.750005,21.7500025 74.4999975,22 75,22 C75.7500038,22 76.3749975,21.7500025 76.875,21.25 L78,19 C78,18.2499962 77.6250038,17.5000038 76.875,16.75 C76.6249987,16.2499975 76.000005,16 75,16 C73.999995,16 73.2500025,16.2499975 72.75,16.75 C72.2499975,17.750005 72,18.4999975 72,19 C72,20.000005 72.2499975,20.7499975 72.75,21.25 Z" id="Path" fill="#FFFFFF"></path>
                        <path d="M91.5306084,45.5961538 C93.1632687,44.7884575 93.4353746,43.3077031 92.3469345,41.1538462 L82.9591849,26.6153846 C82.4149648,25.5384562 81.4625939,25 80.1020437,25 C79.2857136,25 78.7415016,25.134614 78.4693916,25.4038462 C76.8367313,26.2115425 76.5646254,27.6922969 77.6530655,29.8461538 L87.0408151,44.3846154 C87.5850352,45.4615438 88.5374061,46 89.8979563,46 C90.7142864,46 91.2584984,45.865386 91.5306084,45.5961538 Z" id="Path" fill="#FFFFFF"></path>
                    </g>
                </g>
            </g>
        </g>
    </g>
</svg>