<?xml version="1.0" encoding="UTF-8"?>
<svg width="194px" height="210px" viewBox="0 0 194 210" version="1.1" xmlns="http://www.w3.org/2000/svg" xmlns:xlink="http://www.w3.org/1999/xlink">
    <!-- Generator: Sketch 48.2 (47327) - http://www.bohemiancoding.com/sketch -->
    <title>set_your_preference</title>
    <desc>Created with Sketch.</desc>
    <defs></defs>
    <g id="Page-1" stroke="none" stroke-width="1" fill="none" fill-rule="evenodd">
        <g id="set_your_preference" transform="translate(5.000000, 5.000000)">
            <circle id="Oval-2" stroke="#005EB8" stroke-width="10" fill="#FFFFFF" cx="40" cy="160" r="40"></circle>
            <circle id="Oval-2" stroke="#005EB8" stroke-width="10" fill="#FFFFFF" cx="40" cy="40" r="40"></circle>
            <circle id="Oval-3" fill="#231F20" cx="40" cy="40" r="25"></circle>
            <g id="Group-2" transform="translate(30.000000, 12.000000)">
                <path d="M72.4510272,20.1875 C81.7973976,20.1875 89.1829909,28.8677455 89.1829909,39.1393694 L89.1829909,55.0531529 C89.9019425,54.9808175 90.5555348,54.9084821 91.2744864,54.9084821 C95.5228365,54.9084821 99.5097498,56.7168666 102.581634,59.8996233 C104.60777,58.886928 106.829984,58.3805804 109.052198,58.3805804 C113.758063,58.3805804 118.137131,60.6953125 121.078297,64.6737584 C122.320122,64.3120815 123.496588,64.1674107 124.738414,64.1674107 C132.973677,64.1674107 139.378882,71.7626256 139.378882,80.7322126 L139.378882,96.42899 C139.378882,101.854143 138.790649,107.351632 137.548823,112.70445 L131.535774,139.32387 C130.16323,145.472377 125.130569,149.8125 119.378957,149.8125 L72.4510272,149.8125 C67.2222886,149.8125 62.1896276,146.99142 59.0523844,142.434291 L33.9544389,105.398577 C31.7975842,102.21582 30.621118,98.2373744 30.621118,94.2589286 C30.621118,84.1319754 38.0720706,75.7410714 47.2223632,75.7410714 C50.228888,75.7410714 53.1700535,76.609096 55.7190635,78.2728097 L55.7190635,38.7053571 C55.7190635,28.5060686 63.2353754,20.1875 72.4510272,20.1875 Z" id="hand-pointer-o---FontAwesome" fill="#231F20" transform="translate(85.000000, 85.000000) rotate(-45.000000) translate(-85.000000, -85.000000) "></path>
                <path d="M72.473179,28.6875 C67.840865,28.6875 64.121965,32.7880859 64.121965,37.8958333 L64.121965,102.354167 L54.2701422,87.8222656 C52.6390457,85.4482422 50.0292914,83.9375 47.2890493,83.9375 C42.7219791,83.9375 39.068323,88.1819661 39.068323,93.1458333 C39.068323,95.1601562 39.6555177,97.1025391 40.7646633,98.6852214 L65.8183053,135.518555 C67.384158,137.820638 69.8634246,139.1875 72.473179,139.1875 L119.31827,139.1875 C121.210342,139.1875 122.906682,137.748698 123.363389,135.734375 L129.365824,109.260417 C130.409726,104.65625 130.931677,99.9801432 130.931677,95.3040365 L130.931677,79.6930339 C130.931677,75.8802083 128.256679,72.4270833 124.668267,72.4270833 C121.210342,72.4270833 118.404856,75.5205078 118.404856,79.3333333 L116.317053,79.3333333 L116.317053,74.944987 C116.317053,70.4127604 113.185347,66.671875 109.00974,66.671875 C104.964621,66.671875 101.702428,70.2688802 101.702428,74.7291667 L101.702428,79.3333333 L99.6146245,79.3333333 L99.6146245,72.858724 C99.6146245,67.6790365 96.0262122,63.21875 91.2634105,63.21875 C86.6310965,63.21875 82.9121965,67.3193359 82.9121965,72.4270833 L82.9121965,79.3333333 L80.824393,79.3333333 L80.824393,38.327474 C80.824393,33.1477865 77.2359807,28.6875 72.473179,28.6875 Z" id="Path" fill="#FFFFFF" transform="translate(85.000000, 83.937500) rotate(-45.000000) translate(-85.000000, -83.937500) "></path>
                <polygon id="Path" fill="#231F20" transform="translate(97.142857, 105.187500) rotate(-45.000000) translate(-97.142857, -105.187500) " points="98.1987578 91.375 98.1987578 119 96.0869565 119 96.0869565 91.375"></polygon>
                <polygon id="Path" fill="#231F20" transform="translate(109.813665, 90.312500) rotate(-45.000000) translate(-109.813665, -90.312500) " points="110.869565 76.5 110.869565 104.125 108.757764 104.125 108.757764 76.5"></polygon>
                <polygon id="Path" fill="#231F20" transform="translate(120.372671, 77.562500) rotate(-45.000000) translate(-120.372671, -77.562500) " points="121.428571 63.75 121.428571 91.375 119.31677 91.375 119.31677 63.75"></polygon>
            </g>
        </g>
    </g>
</svg>